<?xml version="1.0" encoding="UTF-8" standalone="no"?>
<svg
   fill="#000000"
   version="1.1"
   id="Capa_1"
   width="800px"
   height="800px"
   viewBox="0 0 300.222 300.221"
   xmlns="http://www.w3.org/2000/svg">
<g
   id="g225"
   transform="rotate(180,150.10996,150.11323)">
	<path
   d="m 299.201,93.188 c -14.688,-25.704 -29.988,-50.184 -43.452,-76.5 -3.06,-6.12 -12.852,-4.284 -14.688,1.836 -7.345,26.316 -16.524,58.14 -15.301,85.068 0,6.12 6.732,7.344 10.404,4.284 0.612,0.612 1.836,0.612 3.061,0.612 6.731,-0.612 13.464,-1.836 19.584,-2.448 22.031,55.692 39.779,152.388 -44.677,158.508 -8.567,0.612 -15.3,-1.224 -20.195,-4.896 11.628,-9.792 21.42,-22.031 26.315,-36.107 6.732,-18.36 -6.731,-57.528 -31.824,-46.512 -20.195,9.18 -24.479,45.899 -20.808,64.26 1.224,5.508 3.06,10.403 4.896,14.688 -1.837,1.225 -3.061,1.836 -4.896,3.061 -15.912,9.18 -34.883,13.464 -53.244,12.852 -13.464,-0.612 -21.42,-7.956 -26.316,-17.748 16.524,-8.567 29.988,-22.032 33.66,-36.107 7.344,-29.988 -31.212,-49.572 -47.124,-20.196 -7.344,13.464 -8.568,32.436 -4.284,48.96 -0.612,0.612 -1.836,0.612 -2.448,1.224 -52.632,21.42 -68.544,-45.288 -38.556,-78.336 2.448,-3.06 -0.612,-7.956 -4.284,-5.508 -36.108,25.704 -33.048,80.784 8.568,98.532 11.016,4.896 26.928,3.06 41.616,-1.836 6.732,13.464 17.748,23.868 33.66,25.704 23.868,3.06 51.408,-3.673 73.44,-17.137 12.852,10.404 31.212,12.853 50.184,8.568 80.172,-15.912 65.484,-113.832 42.228,-171.972 6.12,-0.612 11.629,-0.612 17.748,-0.612 5.51,-0.003 9.793,-7.347 6.733,-12.242 z M 83.166,240.067 c -0.612,-4.283 -1.224,-8.567 -1.224,-12.852 0,-6.732 1.224,-13.464 3.06,-19.584 4.284,-14.688 29.988,-9.792 22.032,9.792 -4.896,9.18 -14.076,17.136 -23.868,22.644 z m 97.307,-10.403 c 0,-8.568 3.673,-39.168 16.524,-39.78 9.792,-0.612 9.792,26.316 9.18,30.6 -2.447,11.629 -11.016,21.42 -21.42,28.765 -3.06,-6.122 -4.284,-12.854 -4.284,-19.585 z M 252.077,43.615 c 8.568,15.912 17.748,31.212 26.928,46.512 -12.852,1.836 -25.704,4.284 -37.943,7.344 5.507,-16.524 7.956,-35.496 11.015,-53.856 z"
   id="path223" />
</g>
</svg>
