<?xml version="1.0" encoding="UTF-8" standalone="no"?>
<svg
   width="1200"
   height="1200"
   viewBox="0 0 1200 1200"
   fill="none"
   version="1.1"
   id="svg520"
   xmlns="http://www.w3.org/2000/svg">
  <defs
     id="defs524" />
  <path
     d="m 601.3814,1154.1981 -86.71537,-78.9406 C 206.67503,795.97487 3.3414528,611.18232 3.3414528,385.7241 3.3414528,200.93104 148.06712,56.804697 332.26428,56.804697 c 104.05843,0 203.93085,48.440803 269.11712,124.391113 65.18627,-75.95031 165.05868,-124.391113 269.11712,-124.391113 184.19708,0 328.92288,144.126343 328.92288,328.919403 0,225.45822 -203.33364,410.25077 -511.32464,689.5334 z"
     fill="#C41E3A"
     stroke="#C41E3A"
     stroke-width="3"
     id="morphed_path"
     />
  <path
     d="m 601.3814,1154.1981 -86.71537,-78.9406 C 206.67503,795.97487 3.3414528,611.18232 3.3414528,385.7241 3.3414528,200.93104 148.06712,56.804697 332.26428,56.804697 c 104.05843,0 203.93085,48.440803 269.11712,124.391113 65.18627,-75.95031 165.05868,-124.391113 269.11712,-124.391113 184.19708,0 328.92288,144.126343 328.92288,328.919403 0,225.45822 -203.33364,410.25077 -511.32464,689.5334 z"
     fill="transparent"
     style="visibility:hidden"
     stroke="black"
     stroke-width="3"
     id="heart_path"
     />
  <path
    d="m 513.51751,1095.3554 -1.04741,-7.787 -2.3779,-11.5129 -2.88503,-10.0469 -3.5637,-9.8235 -4.75142,-10.7423 -4.81076,-9.2677 -5.30012,-8.9922 -5.73002,-8.7193 -6.10485,-8.4555 -7.25754,-9.2072 -7.60832,-8.91282 -7.01161,-7.7006 -7.21444,-7.5045 -8.32787,-8.224 -7.5581,-7.145 -7.68595,-7.0013 -8.78127,-7.7175 -6.90485,-5.9132 -8.97645,-7.477 -9.06137,-7.3675 -8.10977,-6.4751 -8.1552,-6.41277 -8.19205,-6.36079 -9.25509,-7.10118 -8.24475,-6.28311 -8.2585,-6.26086 -8.266,-6.24753 -9.30568,-7.01817 -9.2991,-7.02356 -7.21272,-5.48103 -9.26665,-7.06025 -9.23729,-7.09612 -8.17435,-6.34959 -8.13864,-6.39311 -9.11183,-7.25011 -8.04269,-6.50986 -7.9875,-6.57583 -8.91808,-7.48228 -7.84776,-6.73938 -7.77044,-6.82717 -8.64604,-7.79136 -7.57946,-7.03652 -7.47598,-7.14555 -7.36284,-7.26118 -8.1422,-8.31265 -7.08853,-7.52774 -7.80538,-8.62794 -6.76259,-7.82041 -6.58957,-7.96598 -7.19668,-9.13986 -6.17684,-8.28885 -5.96028,-8.44542 -6.43479,-9.68916 -5.45031,-8.78215 -5.18652,-8.93983 -4.90781,-9.09537 -4.61436,-9.24716 -4.9798,-10.50858 -4.365436,-9.36629 -4.31195,-9.39064 -4.79041,-10.59445 -4.18867,-9.445 -4.12612,-9.47212 -4.05977,-9.50025 -4.49064,-10.72302 -4.39632,-10.76172 -3.81744,-9.59911 -3.73288,-9.6319 -3.64306,-9.66598 -3.547,-9.7013 -3.8744,-10.95898 -3.7338,-11.00732 -3.1853,-9.82532 -3.0552,-9.86603 -3.2755,-11.15133 -2.7421,-9.95717 -2.574,-10.0015 -2.682,-11.30761 -2.1616,-10.09808 -1.9361,-10.1434 -1.8846,-11.46597 -1.3706,-10.23422 -1.0544,-10.27116 -0.7651,-11.59262 -0.2423,-10.32107 0.2217,-10.32105 0.7503,-10.29575 1.5616,-11.50878 2.1292,-10.10051 3.3304,-11.1259 3.8961,-9.56127 4.8414,-9.12196 5.8181,-8.53804 7.6795,-8.73117 7.7578,-6.84887 9.60005,-6.60019 9.15624,-4.86924 9.58956,-3.97458 9.90113,-3.14916 11.384746,-2.66197 10.26945,-1.66804 10.35139,-1.09508 11.69307,-0.63661 10.41754,-0.0956 11.71219,0.3476 10.40198,0.67313 10.37969,0.974 10.35206,1.24334 11.60391,1.68301 10.28391,1.73074 10.24943,1.92719 11.48378,2.37691 10.17526,2.28971 10.14044,2.43859 10.10644,2.57591 11.32433,3.04417 10.03594,2.83445 11.2476,3.31298 9.96935,3.05575 7.46682,2.3635 9.91684,3.21547 8.65837,2.8871 9.86349,3.3677 11.05876,3.87172 11.0254,3.95934 9.77699,3.59311 9.752,3.65428 9.72725,3.71222 9.70276,3.76683 10.88328,4.29378 9.65307,3.87334 9.62995,3.91932 10.80282,4.45524 9.58212,4.00873 9.55999,4.04731 10.72522,4.59072 9.51352,4.12206 10.67266,4.66902 9.46647,4.18696 9.44387,4.21404 10.59469,4.76468 9.39549,4.26453 9.37233,4.28476 9.34861,4.30234 10.48648,4.85154 9.29716,4.33051 10.42819,4.8753 9.2449,4.34463 9.21953,4.34523 9.19491,4.34188 10.31418,4.86749 9.14423,4.31842 9.12236,4.2989 19.32922,8.98082 9.07551,4.19899 9.06832,4.1531 10.20263,4.60192 9.07435,4.0318 9.08911,3.96264 10.25567,4.35766 9.15038,3.78539 9.19423,3.68349 10.41464,3.99569 9.32796,3.40458 9.41392,3.22483 10.7228,3.33741 9.66961,2.60881 9.8434,2.06784 23.54946,-2.36542 6.51885,-4.18605 9.2785,-7.04491 7.62063,-6.99909 7.77772,-8.6555 6.14223,-8.30122 5.40578,-8.78366 4.68845,-9.17269 4.47786,-10.68019 2.9401,-8.49398 3.18719,-11.11335 2.33155,-9.99762 2.15675,-11.34801 1.5627,-10.14082 1.44331,-11.45806 1.05234,-10.20756 0.99507,-11.50876 0.75675,-10.23873 0.68321,-10.24786 0.64838,-10.25376 0.73876,-11.54564 0.60353,-8.97321 0.87601,-11.54901 0.90111,-10.25668 1.21087,-11.53262 1.47271,-11.51113 1.57648,-10.19543 2.14271,-11.42037 2.28133,-10.07428 2.69276,-9.97844 3.15638,-9.84743 4.17119,-10.87262 4.30254,-9.41279 4.90219,-9.1167 6.26099,-9.82621 6.22406,-8.26828 6.82786,-7.77194 8.35928,-8.09744 7.96739,-6.57894 8.41107,-5.98914 8.79007,-5.404532 10.26193,-5.42097 9.41046,-4.19659 10.90508,-3.91249 9.9391,-2.63467 10.123,-1.73497 11.5181,-0.76001 10.2332,0.47611 8.8522,1.3373 11.1212,2.94767 9.5122,3.73506 10.186,5.32297 8.5358,5.61293 9.0032,7.144982 7.4647,6.9805 7.8226,8.42989 6.4598,7.92849 6.0266,8.26628 6.2999,9.63383 5.192,8.82129 4.8362,9.0237 4.5005,9.19761 4.6891,10.52122 3.8563,9.48955 3.6325,9.57667 3.4146,9.65587 3.5838,10.94834 3.3029,11.03539 2.694,9.88043 2.4705,9.93848 2.5173,11.24015 1.9945,10.04426 1.7711,10.0848 1.549,10.12117 1.4845,11.41936 1.0814,10.18023 0.8646,10.20039 0.7222,11.49075 0.4115,10.22658 0.2026,10.23247 v 10.2335 l -0.2752,12.78068 -0.3926,8.94622 -0.6239,10.20989 -0.9236,11.46543 -1.1599,11.44199 -1.2309,10.1491 -1.4094,10.12403 -1.7872,11.35339 -1.7751,10.06061 -1.4542,7.52782 -1.8033,8.75474 -2.4819,11.21039 -2.3772,9.92544 -2.5283,9.88442 -2.6755,9.84224 -3.175,11.02063 -2.9762,9.74822 -3.1121,9.70198 -3.2445,9.65502 -3.7966,10.80265 -3.5138,9.55083 -4.0909,10.68309 -3.7684,9.44266 -3.8834,9.39168 -3.9948,9.33816 -4.6171,10.44303 -4.2225,9.22606 -4.3255,9.1728 -4.9786,10.25479 -4.5351,9.05772 -4.6296,9.00363 -5.312,10.0657 -4.8222,8.88662 -4.9106,8.83396 -4.9961,8.77992 -5.0787,8.72467 -5.8029,9.75065 -5.2492,8.60978 -5.9903,9.62284 -5.4104,8.4937 -6.1682,9.49394 -5.5652,8.38046 -5.6352,8.32606 -5.7043,8.2734 -6.4921,9.24732 -5.8464,8.16025 -5.9118,8.1079 -6.721,9.06161 -6.0468,7.9963 -6.10897,7.94397 -5.40193,6.90475 -7.7775,9.80781 -6.29928,7.78193 -7.15252,8.69691 -12.86791,15.32794 -7.36076,8.51543 -6.60952,7.50916 -6.66824,7.45682 -7.56619,8.3301 -6.79183,7.343 -6.85068,7.2891 -7.77262,8.1398 -6.97563,7.1715 -7.91447,8.0059 -7.10214,7.0501 -7.16265,6.9913 -8.12746,7.7996 -7.29284,6.862 -7.35498,6.7985 -8.34647,7.57672 -7.48943,6.6577 -8.50072,7.4132 -6.67482,5.692 -7.68771,6.4421 -7.75584,6.3648 -8.80528,7.0697 -8.89566,6.9629 -7.98629,6.0887 -9.07152,6.7441 -8.14644,5.8835 -8.22435,5.7785 -9.34765,6.3742 -7.34502,4.8415 -9.53632,6.0974 -8.57119,5.2686 -9.75083,5.7577 -8.76804,4.941 -7.75289,4.173 -20.28999,10.1205 -9.19586,4.0966 -10.48042,4.2967 -9.44053,3.4914 -10.76234,3.5178 -9.69372,2.6918 -9.80885,2.2182 -9.91424,1.6607 -11.25289,1.076 -10.044,0.09 -10.00318,-0.8917 -9.83146,-2.065 -9.45795,-3.4276 -9.84557,-5.6359 -7.70594,-6.5903 -7.1969,-8.9301 -5.5444,-10.1261 -3.62576,-9.6633 -2.55631,-10.0395 -1.64799,-10.2563 -0.40494,-3.9091 -0.93007,-7.7553 -2.16686,-11.454 -2.66273,-9.9821 -3.31021,-9.7461 -4.43153,-10.6394 -4.49839,-9.1616 -4.96432,-8.8715 -5.37372,-8.58382 -5.73101,-8.3049 -6.81953,-9.0195 -7.15562,-8.7055 -6.59987,-7.5 -6.79644,-7.2888 -7.85297,-7.9635 -7.1342,-6.898 -7.2624,-6.7403 -8.30746,-7.4079 -6.53972,-5.6611 -8.51312,-7.1396 -8.60666,-7.01588 -7.71417,-6.15169 -7.76874,-6.08 -7.81558,-6.01956 -8.84442,-6.70832 -7.89179,-5.92689 -7.9174,-5.89896 -7.93707,-5.88077 -8.9505,-6.6008 -8.95983,-6.60214 -6.95987,-5.15113 -8.95571,-6.63408 -8.9421,-6.66848 -7.92501,-5.96883 -7.90134,-6.01224 -8.85895,-6.822 -7.83011,-6.13002 -7.78608,-6.19695 -8.70443,-7.05748 -7.66897,-6.36323 -7.60177,-6.45252 -8.46798,-7.37179 -7.43121,-6.66529 -7.33681,-6.77594 -7.23247,-6.89315 -8.00567,-7.90044 -6.97587,-7.16284 -7.68811,-8.21899 -6.66651,-7.45812 -6.50094,-7.60471 -7.10564,-8.73445 -6.10344,-7.92922 -5.89381,-8.08633 -6.36816,-9.28564 -5.39819,-8.42373 -5.14102,-8.58153 -4.86887,-8.7371 -4.58192,-8.88884 -4.9512,-10.10755 -4.34698,-9.01392 -4.29983,-9.04224 -4.78405,-10.20738 -4.18927,-9.10536 -4.13237,-9.13668 -4.071466,-9.16906 -4.51006,-10.35552 -4.4221,-10.39959 -3.84548,-9.2817 -3.76557,-9.31864 -3.68018,-9.35682 -3.58854,-9.39615 -3.92601,-10.62035 -3.79056,-10.67347 -3.23987,-9.5324 -3.11366,-9.57659 -3.34572,-10.82961 -2.8083,-9.67446 -2.6439,-9.72165 -2.7649,-10.99586 -2.2392,-9.82346 -2.0173,-9.87079 -1.9803,-11.16133 -1.4597,-9.96489 -1.1475,-10.00281 -0.8746,-11.29145 -0.3443,-10.05359 0.1153,-10.05338 0.6391,-10.02756 1.4307,-11.20613 2.0074,-9.8306 3.1871,-10.82153 3.7636,-9.29087 4.7045,-8.85304 5.67775,-8.27246 7.51946,-8.43932 7.61516,-6.59821 9.4412,-6.33051 9.01771,-4.64167 9.454226,-3.75865 9.76923,-2.9444 11.24034,-2.44389 10.14428,-1.48392 10.22881,-0.91895 11.55771,-0.44665 10.29896,0.067 11.58019,0.52468 10.2854,0.82621 10.2634,1.12368 10.2357,1.39026 11.47243,1.84567 10.16616,1.8735 10.13049,2.06872 11.34813,2.53514 10.05268,2.42987 10.01563,2.57864 9.97906,2.71616 11.17752,3.20254 9.90195,2.97606 11.09243,3.47358 9.82705,3.1999 7.35717,2.47263 9.76636,3.36252 8.52237,3.01738 9.7027,3.51859 10.87042,4.04431 10.8284,4.1352 9.59396,3.7524 9.56082,3.81654 9.52725,3.87763 9.49321,3.93553 10.63508,4.48769 9.42042,4.04949 9.38499,4.09911 10.5112,4.66195 9.3074,4.19641 9.2694,4.23867 10.37764,4.81026 9.1846,4.3208 10.27814,4.89622 9.0921,4.39169 9.04533,4.4208 10.11499,4.99875 8.93897,4.47286 8.88519,4.49204 8.82864,4.50709 9.85941,5.07651 8.6999,4.52324 9.70861,5.08046 8.56077,4.51307 8.49188,4.49669 8.42254,4.47212 9.39129,4.98272 8.27632,4.38729 8.21119,4.33047 17.26357,8.89842 8.05314,4.0785 8.02321,3.97417 9.01058,4.32699 8.01123,3.7204 8.03379,3.58857 9.09158,3.86516 8.14795,3.28896 8.23271,3.1388 9.39263,3.3356 8.48056,2.78659 8.62985,2.58872 9.92189,2.61518 9.03436,1.97639 9.28647,1.4636 22.75294,-3.32473 6.48126,-4.23445 9.27301,-7.05201 7.66327,-6.94415 7.87392,-8.53297 6.26561,-8.14692 5.55963,-8.59551 4.8678,-8.95914 4.70409,-10.41917 3.13017,-8.28155 3.44522,-10.83443 2.57036,-9.7487 2.43242,-11.07103 1.81137,-9.90002 1.72456,-11.1955 1.30175,-9.98298 1.27301,-11.26722 0.99998,-10.03457 0.92154,-10.05406 0.88064,-10.07065 0.99145,-11.35264 0.79287,-8.8327 1.10894,-11.38084 1.09712,-10.11904 1.41758,-11.39122 1.66332,-11.38408 1.73103,-10.09471 2.29825,-11.32101 2.40189,-9.99867 2.79527,-9.91508 3.23953,-9.79665 4.24,-10.83103 4.34049,-9.39001 4.91743,-9.10758 6.25055,-9.83245 6.19049,-8.28841 6.77231,-7.80546 8.27234,-8.15038 7.87061,-6.63859 8.29833,-6.0596 8.66378,-5.4847 10.10688,-5.52121 9.26209,-4.29444 10.72536,-4.033542 9.76754,-2.75298 9.9399,-1.86411 11.2988,-0.91873 10.0278,0.32314 8.6654,1.19473 10.8741,2.75354 9.2884,3.553712 9.9322,5.11083 8.3107,5.41854 8.7519,6.92107 7.2443,6.77764 7.5785,8.19801 6.2467,7.71947 5.8171,8.05472 6.0688,9.39287 4.9907,8.6045 4.6383,8.80444 4.3064,8.97586 4.4749,10.26869 3.6693,9.26218 3.4488,9.34615 3.2337,9.42215 3.3841,10.68159 3.1071,10.76463 2.5234,9.6364 2.3031,9.69128 2.3328,10.95827 1.8341,9.79036 1.614,9.82774 1.3954,9.86095 1.3157,11.12279 0.9352,9.91323 0.7219,9.93014 0.5659,11.18283 0.2765,9.94939 0.071,9.95196 -0.1305,9.94961 -0.4293,12.42107 -0.4969,8.69126 -0.7393,9.91526 -1.0485,11.12971 -1.2797,11.10171 -1.3329,9.84275 -1.5071,9.81395 -1.8918,11.00007 -1.8632,9.7425 -1.5173,7.28668 -1.8735,8.47062 -2.5667,10.84069 -2.4473,9.59255 -2.5932,9.54751 -2.7352,9.50126 -3.2356,10.63208 -3.0241,9.39851 -3.1541,9.34814 -3.2806,9.29703 -3.8298,10.39502 -3.5365,9.18411 -4.1085,10.26574 -3.7768,9.06739 -3.8847,9.01244 -3.9888,8.9551 -4.6014,10.00756 -4.2004,8.8351 -4.2953,8.7783 -4.9347,9.80702 -4.4871,8.6563 -4.5729,8.59922 -5.2376,9.60741 -4.7463,8.47669 -4.8253,8.4217 -4.9013,8.36567 -4.974,8.30883 -5.6733,9.28131 -5.1232,8.1915 -5.8364,9.15166 -5.2625,8.07477 -5.9893,9.02299 -5.3949,7.96262 -5.4544,7.90949 -5.5128,7.85848 -6.2642,8.78314 -5.6324,7.75051 -5.68745,7.70135 -6.4562,8.60867 -5.80058,7.59816 -5.85274,7.55053 -5.16963,6.56473 -7.43298,9.32964 -6.01318,7.40629 -6.81995,8.28229 -12.2502,14.61346 -6.99928,8.12722 -6.28032,7.17291 -6.33204,7.1292 -7.18019,7.97222 -6.44228,7.03457 -6.49554,6.9903 -7.367,7.8152 -6.6102,6.8934 -7.49844,7.7051 -6.72851,6.7934 -6.78587,6.7447 -7.70038,7.5345 -6.91085,6.6372 -6.97123,6.5839 -7.91313,7.3474 -7.10323,6.4647 -8.06557,7.20802 -6.33616,5.5409 -7.30077,6.2787 -7.36928,6.2109 -8.37123,6.908 -8.46276,6.8128 -7.60274,5.9649 -8.64166,6.6154 -7.76595,5.7782 -7.84552,5.6817 -8.92353,6.2752 -7.01677,4.7714 -9.11635,6.0161 -8.19985,5.2046 -9.33524,5.6943 -8.4005,4.8925 -7.43263,4.1363 -19.47142,10.0504 -8.83389,4.0764 -10.07406,4.2819 -9.07971,3.4851 -10.35639,3.5185 -9.33234,2.6994 -9.44656,2.2323 -9.55061,1.6816 -10.84188,1.1075 -9.67702,0.1258 -9.6355,-0.8494 -9.46524,-2.0159 -9.09731,-3.3725 -9.45507,-5.5687 -7.38173,-6.5284 -6.86773,-8.8616 -5.25776,-10.0616 -3.40607,-9.611 -2.36644,-9.992 -1.48414,-10.2138 -0.34949,-3.8944 -0.81274,-7.7236 -1.95582,-11.3951 -2.44043,-9.9172 -3.0567,-9.6688 -4.11164,-10.5366 -4.18602,-9.05532 -4.62853,-8.7509 -5.01742,-8.4483 -5.35716,-8.1542 -6.38152,-8.8318 -6.70293,-8.4983 -6.18812,-7.2995 -6.37845,-7.073 -7.37807,-7.703 -6.71029,-6.651 -6.83886,-6.4793 -7.83364,-7.0982 -6.1746,-5.40913 -8.04979,-6.80213 -8.15196,-6.66424 -7.31856,-5.82826 -7.38227,-5.74722 -7.43912,-5.67834 -8.43376,-6.31545 -7.53883,-5.57068 -7.57629,-5.53705 -7.60814,-5.51403 -8.59532,-6.18342 -8.62055,-6.18073 -6.70703,-4.82122 -8.64477,-6.20791 -8.64692,-6.24083 -7.67565,-5.58807 -7.66405,-5.63137 -8.60607,-6.3939 -7.61754,-5.75018 -7.58466,-5.81808 -8.49077,-6.63266 -7.49018,-5.98708 -7.43311,-6.07788 -8.28992,-6.95221 -7.28294,-6.29407 -7.19765,-6.40633 -7.10209,-6.52513 -7.86914,-7.48822 -6.86323,-6.79794 -7.57084,-7.81003 -6.57042,-7.09584 -6.41231,-7.24344 -7.0146,-8.32904 -6.03004,-7.56959 -5.82735,-7.72725 -6.30152,-8.88211 -5.34608,-8.06531 -5.09552,-8.22324 -4.82992,-8.37882 -4.5495,-8.53052 -4.92259,-9.70652 -4.32851,-8.66155 -4.2877,-8.69383 -4.7777,-9.82031 -4.18986,-8.76572 -4.13862,-8.80125 -4.08318,-8.83787 -4.52948,-9.98802 -4.44788,-10.03746 -3.87353,-8.96428 -3.79824,-9.00539 -3.717346,-9.04766 -3.63001,-9.091 -3.97766,-10.28172 -3.84731,-10.33961 -3.29448,-9.2395 -3.17208,-9.28714 -3.41584,-10.50789 -2.87459,-9.39176 -2.71384,-9.44178 -2.84779,-10.68412 -2.31673,-9.54883 -2.09845,-9.59819 -2.07607,-10.8567 -1.54888,-9.69555 -1.24055,-9.73447 -0.9842,-10.99028 -0.4462,-9.7861 0.01,-9.78572 0.528,-9.75935 1.2997,-10.90349 1.88552,-9.56068 3.04388,-10.51718 3.63105,-9.02047 4.56758,-8.58411 5.53751,-8.00688 7.35935,-8.14747 7.47255,-6.34755 9.282336,-6.06083 8.87919,-4.4141 9.31891,-3.54272 9.63732,-2.73964 11.09591,-2.22581 10.01912,-1.29979 10.10625,-0.74282 11.42234,-0.25671 10.18039,0.22967 11.44817,0.70177 10.16883,0.97927 10.14712,1.27337 10.11932,1.53718 11.34096,2.00832 10.04842,2.01628 10.01154,2.21025 11.21248,2.69336 9.9301,2.57003 9.89082,2.71868 9.85168,2.85641 11.03072,3.36092 9.76794,3.11768 10.93726,3.63417 9.68477,3.34406 7.24751,2.58175 9.61588,3.50957 8.38637,3.14765 9.54191,3.6695 10.68207,4.2169 10.63141,4.31106 9.41092,3.91168 9.36965,3.97881 9.32726,4.04303 9.28366,4.10423 10.38688,4.6816 9.18777,4.22563 9.14001,4.27891 10.21959,4.86865 9.03268,4.3841 8.97881,4.43003 10.03007,5.02981 8.85568,4.51952 9.8836,5.12343 8.71773,4.59643 8.64679,4.62754 9.63529,5.23284 8.48246,4.68117 8.39806,4.69934 8.30865,4.71182 9.23235,5.3015 8.10264,4.71596 8.98903,5.28561 7.87664,4.68152 7.76422,4.64815 7.65018,4.60235 8.4684,5.09795 7.4084,4.45617 7.30002,4.36204 15.19794,8.81602 7.03076,3.95801 6.97811,3.79523 7.81852,4.05208 6.94811,3.40899 6.97846,3.2145 7.92751,3.37266 7.1455,2.79253 7.2712,2.5941 8.37062,2.67552 7.63317,2.16859 7.84577,1.95262 9.12098,1.89295 8.3991,1.34397 8.72955,0.85936 21.95641,-4.28404 6.44369,-4.28284 9.2675,-7.05911 7.70591,-6.88923 7.97013,-8.41043 6.38898,-7.99262 5.7135,-8.40736 5.04713,-8.7456 4.93033,-10.15814 3.32023,-8.06913 3.70327,-10.55551 2.80916,-9.49977 2.70809,-10.79406 2.06004,-9.65921 2.00582,-10.93293 1.55115,-9.75841 1.55095,-11.02568 1.24321,-9.8304 1.15987,-9.86027 1.11291,-9.88754 1.24413,-11.15964 0.98222,-8.69219 1.34185,-11.21266 1.29314,-9.98141 1.62429,-11.24982 1.85393,-11.25703 1.88557,-9.99398 2.4538,-11.22167 2.52245,-9.92305 2.89779,-9.85171 3.32267,-9.74588 4.3088,-10.78944 4.37845,-9.36723 4.93268,-9.09846 6.24011,-9.83869 6.15691,-8.30855 6.71675,-7.83897 8.18542,-8.20331 7.77382,-6.69825 8.18559,-6.13005 8.53748,-5.56487 9.95184,-5.62146 9.11373,-4.39229 10.54568,-4.15459 9.59588,-2.8713 9.75684,-1.99324 11.07961,-1.07746 9.8222,0.17018 8.4787,1.05216 10.627,2.55942 9.0645,3.37234 9.6786,4.8987 8.0854,5.22415 8.5008,6.69716 7.0237,6.57478 7.3345,7.96614 6.0335,7.51045 5.6077,7.84315 5.8378,9.1519 4.7892,8.38771 4.4405,8.5852 4.1122,8.7541 4.2607,10.01616 3.4825,9.03481 3.2649,9.11562 3.0529,9.18844 3.1844,10.41483 2.9114,10.49388 2.3527,9.39236 2.1357,9.44409 2.1483,10.67639 1.6737,9.53646 1.457,9.57069 1.2417,9.60072 1.147,10.82623 0.7889,9.64622 0.5792,9.6599 0.4097,10.8749 0.1414,9.67221 -0.06,9.67144 -0.2581,9.66573 -0.5834,12.06145 -0.6011,8.43631 -0.8546,9.62061 -1.1736,10.794 -1.3995,10.76144 -1.4348,9.53639 -1.6047,9.50387 -1.9965,10.64675 -1.9514,9.42439 -1.5803,7.04553 -1.9437,8.18652 -2.6515,10.47097 -2.5174,9.25966 -2.6582,9.21061 -2.7949,9.16028 -3.2961,10.24353 -3.072,9.04881 -3.1962,8.99429 -3.3167,8.93904 -3.8629,9.98738 -3.5592,8.81741 -4.1261,9.84838 -3.7852,8.69213 -3.8861,8.63319 -3.9828,8.57204 -4.5857,9.5721 -4.1781,8.44413 -4.2651,8.38381 -4.8909,9.35924 -4.4392,8.25487 -4.5162,8.19482 -5.1632,9.14913 -4.6704,8.06675 -4.74,8.00944 -4.8063,7.95143 -4.8694,7.89297 -5.5437,8.81198 -4.9973,7.77322 -5.6824,8.68049 -5.1146,7.65582 -5.8104,8.55205 -5.2247,7.54478 -5.2735,7.49291 -5.32146,7.44357 -6.03607,8.31895 -5.41853,7.34079 -5.46306,7.29478 -6.19141,8.15574 -5.55434,7.20001 -5.5965,7.15711 -4.93734,6.2247 -7.08845,8.85147 -5.72709,7.03066 -6.48739,7.86765 -11.63248,13.89899 -6.6378,7.73902 -5.95111,6.83666 -5.99585,6.80156 -6.79418,7.61436 -6.09274,6.72632 -6.14039,6.69143 -6.9614,7.49054 -6.24475,6.6153 -7.08242,7.4042 -6.35488,6.5367 -6.40909,6.4982 -7.27329,7.2693 -6.52887,6.4125 -6.58748,6.3693 -7.47978,7.1182 -6.71705,6.2716 -7.63041,7.0027 -5.9975,5.39 -6.91383,6.1152 -6.98272,6.05712 -7.93718,6.7462 -8.02987,6.6627 -7.21919,5.8412 -8.21179,6.4866 -7.38546,5.673 -7.46669,5.5849 -8.49942,6.1761 -6.6885,4.7014 -8.69639,5.9348 -7.82852,5.1404 -8.91965,5.6311 -8.03295,4.8439 -7.11236,4.0996 -18.65286,9.9804 -8.47191,4.0561 -9.66771,4.267 -8.71889,3.4789 -9.95043,3.5193 -8.97097,2.7069 -9.08426,2.2465 -9.18698,1.7025 -10.43088,1.139 -9.31003,0.1612 -9.26783,-0.8071 -9.09901,-1.9668 -8.73668,-3.3175 -9.06457,-5.5014 -7.05752,-6.4665 -6.53855,-8.793 -4.97113,-9.9972 -3.18639,-9.5586 -2.17657,-9.9447 -1.32028,-10.1713 -0.29404,-3.8797 -0.6954,-7.6918 -1.74478,-11.3361 -2.21813,-9.8525 -2.80321,-9.59152 -3.79175,-10.4336 -3.87365,-8.9492 -4.29273,-8.6302 -4.66113,-8.3128 -4.9833,-8.0036 -5.94352,-8.644 -6.25023,-8.2911 -5.77638,-7.0989 -5.96045,-6.8573 -6.90317,-7.4424 -6.28639,-6.4041 -6.41531,-6.2183 -7.35983,-6.78853 -5.80948,-5.15716 -7.58645,-6.46465 -7.69725,-6.31264 -6.92296,-5.50483 -6.99581,-5.41445 -7.06265,-5.33711 -8.02309,-5.92259 -7.18588,-5.21446 -7.23518,-5.17515 -7.27922,-5.14728 -8.24013,-5.76603 -8.28128,-5.75932 -6.45418,-4.49131 -8.33382,-5.78175 -8.35174,-5.81318 -7.42631,-5.20732 -7.42675,-5.2505 -8.35319,-5.96578 -7.40496,-5.37035 -7.38325,-5.4392 -8.27711,-6.20785 -7.31139,-5.61094 -7.26445,-5.70324 -8.11185,-6.53263 -7.13469,-5.92283 -7.05849,-6.03672 -6.97171,-6.15711 -7.73261,-7.07601 -6.75057,-6.43304 -7.45357,-7.40108 -6.47434,-6.73355 -6.32368,-6.88217 -6.92356,-7.92362 -5.95665,-7.20998 -5.76088,-7.36815 -6.23487,-8.47859 -5.29397,-7.70689 -5.05002,-7.86494 -4.79099,-8.02055 -4.51706,-8.1722 -4.89399,-9.30549 -4.31005,-8.30918 -4.27556,-8.34543 -4.77135,-9.43324 -4.19046,-8.42607 -4.14487,-8.46582 -4.09487,-8.50668 -4.5489,-9.62052 -4.47366,-9.67532 -3.90157,-8.64687 -3.83093,-8.69214 -3.75451,-8.7385 -3.67149,-8.78585 -4.02931,-9.94309 -3.90407,-10.00576 -3.34908,-8.94658 -3.230486,-8.99769 -3.48601,-10.18619 -2.94086,-9.10904 -2.78372,-9.16192 -2.93072,-10.37238 -2.39428,-9.2742 -2.17963,-9.32559 -2.17181,-10.55206 -1.63802,-9.42622 -1.33354,-9.46612 -1.09381,-10.68912 -0.54811,-9.51862 -0.0975,-9.51804 0.41679,-9.49116 1.16874,-10.60084 1.76367,-9.29077 2.90064,-10.21282 3.49851,-8.75007 4.43068,-8.31518 5.39723,-7.7413 7.199246,-7.85562 7.32993,-6.09689 9.1235,-5.79115 8.74067,-4.18653 9.18357,-3.32679 9.50541,-2.53488 10.9515,-2.00773 9.89396,-1.11567 9.98367,-0.56669 11.28698,-0.0668 10.06181,0.3923 11.31617,0.87885 10.05224,1.13234 10.03084,1.42307 10.00296,1.68409 11.20948,2.17097 9.93067,2.15906 9.8926,2.35177 11.07683,2.85159 9.80752,2.71019 9.76601,2.85873 9.72429,2.99666 10.88392,3.5193 9.63395,3.25928 10.78208,3.79477 9.54249,3.48821 7.13785,2.69089 9.4654,3.65661 8.25038,3.27792 9.38111,3.8204 10.49372,4.38949 10.43442,4.48693 9.22789,4.07096 9.17847,4.14107 9.12727,4.20844 9.0741,4.27293 10.13869,4.87551 8.95511,4.40177 8.89505,4.4587 9.92796,5.07536 8.75797,4.57179 8.68822,4.62139 9.6825,5.24936 8.52675,4.71825 9.48907,5.35063 8.34337,4.80116 8.24825,4.8343 9.15559,5.46692 8.02594,4.88949 7.91092,4.90662 7.78868,4.91656 8.60527,5.52649 7.50538,4.90868 8.26946,5.49077 7.19251,4.84996 7.03656,4.7996 6.87782,4.7326 7.54551,5.21318 6.54048,4.52505 6.38886,4.3936 13.13229,8.73362 6.00839,3.83751 5.93301,3.61631 6.62646,3.77716 5.88499,3.09758 5.92314,2.84042 6.76342,2.88017 6.14307,2.29609 6.30968,2.04942 7.34862,2.01543 6.78576,1.5506 7.06169,1.31651 8.32007,1.17072 7.76386,0.71155 8.17262,0.25512 21.15988,-5.24334 6.40611,-4.33125 9.26201,-7.06621 7.74854,-6.83429 8.06635,-8.2879 6.51235,-7.83832 5.86736,-8.21921 5.22646,-8.53205 5.15657,-9.89712 3.5103,-7.8567 3.9613,-10.27659 3.04797,-9.25085 2.98376,-10.51708 2.30871,-9.41841 2.28707,-10.67037 1.80057,-9.53383 1.82887,-10.78414 1.48645,-9.62623 1.3982,-9.66648 1.34517,-9.70443 1.49683,-10.96664 1.17155,-8.55168 1.57478,-11.04449 1.48915,-9.84377 1.831,-11.10843 2.04453,-11.12997 2.04012,-9.89326 2.60935,-11.12232 2.64301,-9.84743 3.00031,-9.78834 3.40582,-9.69512 4.3776,-10.74784 4.41639,-9.34445 4.94793,-9.08933 6.22967,-9.84494 6.12334,-8.32868 6.6612,-7.87249 8.09849,-8.25625 7.67704,-6.7579 8.07283,-6.20051 8.4112,-5.64504 9.79679,-5.72171 8.96536,-4.49012 10.366,-4.27565 9.42424,-2.98961 9.57376,-2.12239 10.86043,-1.23617 9.61671,0.0172 8.292,0.90958 10.3798,2.3653 8.8407,3.19098 9.4248,4.68657 7.8603,5.02976 8.2495,6.47325 6.8033,6.37192 7.0903,7.73426 5.8204,7.30144 5.3984,7.63158 5.6066,8.91094 4.5878,8.17092 4.2428,8.36595 3.918,8.53234 4.0464,9.76364 3.2956,8.80743 3.0811,8.8851 2.8722,8.95471 2.9845,10.14809 2.7157,10.22312 2.1821,9.14833 1.9683,9.19689 1.9639,10.39451 1.5132,9.28255 1.2999,9.31365 1.0881,9.34048 0.9783,10.52968 0.6426,9.3792 0.4364,9.38966 0.2535,10.56697 0.01,9.39504 -0.1914,9.39092 -0.3857,9.38185 -0.7374,11.70183 -0.7053,8.18136 -0.97,9.32596 -1.2986,10.4583 -1.5192,10.42115 -1.5369,9.23003 -1.7024,9.1938 -2.101,10.29343 -2.0395,9.10627 -1.6434,6.80439 -2.014,7.90242 -2.7363,10.10126 -2.5875,8.92677 -2.7231,8.87369 -2.8545,8.8193 -3.3568,9.855 -3.1199,8.69909 -3.2382,8.64045 -3.3528,8.58105 -3.8961,9.57975 -3.5819,8.4507 -4.1437,9.43102 -3.7936,8.31686 -3.8873,8.25395 -3.9769,8.18898 -4.57,9.13663 -4.1559,8.05317 -4.2349,7.98931 -4.8471,8.91146 -4.3912,7.85346 -4.4596,7.7904 -5.0887,8.69086 -4.5944,7.65681 -4.6548,7.59718 -4.7114,7.53719 -4.7647,7.47711 -5.4141,8.34265 -4.8714,7.35495 -5.5284,8.2093 -4.9668,7.23689 -5.63144,8.0811 -5.05449,7.12694 -5.09273,7.07634 -5.12996,7.02864 -5.80802,7.85477 -5.20463,6.93106 -5.23867,6.88822 -5.9266,7.7028 -5.30812,6.80187 -5.34025,6.76368 -4.70506,5.88468 -6.74392,8.3733 -5.44099,6.65502 -6.15483,7.45302 -11.01476,13.18452 -6.27631,7.35082 -5.62192,6.5004 -5.65964,6.47393 -6.40819,7.25649 -5.74319,6.41802 -5.78525,6.39258 -6.55578,7.16595 -5.87931,6.33724 -6.6664,7.10328 -5.98125,6.28 -6.03232,6.2517 -6.84619,7.0042 -6.1469,6.1877 -6.20372,6.1547 -7.04644,6.8889 -6.33085,6.0786 -7.19527,6.7975 -5.65883,5.2389 -6.52689,5.9518 -6.59616,5.9033 -7.50314,6.5844 -7.59697,6.5126 -6.83563,5.71742 -7.78193,6.3579 -7.00496,5.5678 -7.08786,5.4881 -8.07531,6.0769 -6.36025,4.6314 -8.27642,5.8535 -7.45719,5.0763 -8.50405,5.5678 -7.66541,4.7954 -6.7921,4.063 -17.83429,9.9103 -8.10994,4.0359 -9.26136,4.2521 -8.35806,3.4726 -9.54448,3.52 -8.60959,2.7145 -8.72197,2.2607 -8.82335,1.7233 -10.01988,1.1706 -8.94304,0.1966 -8.90016,-0.7647 -8.73278,-1.9178 -8.37604,-3.2625 -8.67407,-5.4341 -6.73332,-6.4046 -6.20937,-8.7244 -4.68449,-9.9328 -2.9667,-9.5062 -1.98671,-9.8973 -1.15641,-10.1288 -0.2386,-3.865 -0.57807,-7.6601 -1.53373,-11.27722 -1.99584,-9.7877 -2.5497,-9.5141 -3.47186,-10.3308 -3.56129,-8.8429 -3.95692,-8.5096 -4.30484,-8.1773 -4.60945,-7.853 -5.50552,-8.4563 -5.79754,-8.0837 -5.36463,-6.89844 -5.54245,-6.64159 -6.42827,-7.1819 -5.86248,-6.15712 -5.99177,-5.9573 -6.88601,-6.47888 -5.44436,-4.90517 -7.12312,-6.12717 -7.24254,-5.96104 -6.52737,-5.1814 -6.60933,-5.08167 -6.68619,-4.99589 -7.61243,-5.52972 -6.83292,-4.85824 -6.89407,-4.81326 -6.95029,-4.78052 -7.88495,-5.34866 -7.942,-5.3379 -6.20135,-4.16141 -8.02287,-5.35557 -8.05655,-5.38555 -7.17696,-4.82655 -7.18946,-4.86964 -8.10031,-5.53767 -7.19238,-4.99051 -7.18183,-5.06033 -8.06345,-5.78304 -7.13261,-5.23478 -7.09578,-5.3286 -7.93379,-6.11305 -6.98643,-5.55161 -6.91933,-5.66711 -6.84134,-5.78908 -7.59608,-6.66381 -6.63791,-6.06813 -7.33631,-6.99212 -6.37825,-6.37127 -6.23505,-6.5209 -6.83252,-7.51821 -5.88325,-6.85035 -5.69441,-7.00906 -6.16824,-8.07508 -5.24185,-7.34846 -5.00453,-7.50664 -4.75204,-7.66228 -4.48464,-7.81388 -4.86537,-8.90447 -4.2916,-7.9568 -4.26343,-7.99703 -4.76499,-9.04616 -4.19106,-8.08644 -4.15113,-8.13038 -4.10656,-8.17549 -4.56832,-9.25302 -4.49945,-9.31319 -3.9296,-8.32945 -3.86362,-8.37888 -3.79165,-8.42935 -3.71298,-8.4807 -4.08095,-9.60445 -3.96082,-9.67191 -3.40369,-8.65368 -3.28891,-8.70824 -3.55618,-9.86447 -3.00713,-8.82634 -2.85361,-8.88206 -3.01364,-10.06064 -2.47182,-8.99956 -2.26081,-9.05298 -2.267556,-10.24744 -1.72716,-9.15688 -1.42659,-9.19778 -1.20337,-10.38794 -0.65004,-9.25114 -0.20393,-9.25037 0.30564,-9.22296 1.03778,-10.2982 1.64182,-9.02086 2.75741,-9.90845 3.365946,-8.47968 4.29378,-8.04625 5.25697,-7.47573 7.03915,-7.56375 7.18732,-5.84624 8.96464,-5.52147 8.60214,-3.95896 9.04825,-3.11086 9.37349,-2.33012 10.80709,-1.78965 9.76879,-0.93155 9.8611,-0.39055 11.15162,0.12319 9.94323,0.55491 11.18417,1.05594 9.93566,1.28542 9.91455,1.57275 9.88659,1.83101 11.07801,2.33363 9.81292,2.30183 9.77366,2.4933 10.94118,3.00982 9.68494,2.85034 9.6412,2.99878 9.59691,3.1369 10.73711,3.67768 9.49995,3.4009 10.62692,3.95536 9.4002,3.63236 7.0282,2.80002 9.31491,3.80367 8.11438,3.40818 9.22032,3.97131 10.30537,4.56208 10.23744,4.66278 9.04484,4.23025 8.9873,4.30334 8.92727,4.37384 8.86456,4.44163 9.89049,5.06942 8.72246,4.57792 8.65008,4.63849 9.63634,5.28207 8.48326,4.75947 8.39762,4.81276 9.33493,5.4689 8.19783,4.91697 9.09453,5.57784 7.969,5.0059 7.84971,5.04104 8.67589,5.70101 7.56943,5.0978 7.42378,5.11391 7.2687,5.12131 7.97821,5.75146 6.90812,5.10141 7.54988,5.69593 6.50838,5.0184 6.3089,4.95106 6.10545,4.86284 6.62263,5.3284 5.67257,4.59393 5.47769,4.42517 11.06664,8.65122 4.98601,3.71702 4.88792,3.43738 5.4344,3.50224 4.82186,2.78616 4.86783,2.46636 5.59934,2.38766 5.14062,1.79967 5.34817,1.50472 6.32661,1.35535 5.93837,0.9326 6.27761,0.68041 7.51916,0.44849 7.12861,0.0791 7.61569,-0.34913 20.36336,-6.20265 6.36853,-4.37964 9.25651,-7.07332 7.79117,-6.77936 8.16256,-8.16536 6.63572,-7.68402 6.02122,-8.03107 5.4058,-8.31849 5.38281,-9.6361 3.70037,-7.64428 4.21934,-9.99766 3.28677,-9.00192 3.25943,-10.24012 2.55738,-9.17761 2.56832,-10.40779 2.04998,-9.30926 2.10681,-10.5426 1.72968,-9.42206 1.63654,-9.47269 1.57743,-9.52132 1.74951,-10.77364 1.36089,-8.41116 1.8077,-10.87632 1.68517,-9.70615 2.03771,-10.96702 2.23514,-11.00292 2.19467,-9.79253 2.7649,-11.02298 2.76356,-9.77181 3.10282,-9.72497 3.48897,-9.64435 4.44641,-10.70625 4.45434,-9.32166 4.96318,-9.08022 6.21923,-9.85118 6.08977,-8.34881 6.60563,-7.90601 8.01156,-8.30919 7.58026,-6.81755 7.96009,-6.27097 8.2849,-5.72521 9.64175,-5.82195 8.817,-4.58797 10.18632,-4.39671 9.25259,-3.10792 9.39067,-2.25152 10.64122,-1.39489 9.41118,-0.13576 8.10532,0.76701 10.1327,2.17118 8.6168,3.00961 9.1711,4.47444 7.6351,4.83537 7.9982,6.24934 6.5829,6.16906 6.8463,7.50239 5.6072,7.09242 5.1889,7.42001 5.3756,8.66997 4.3863,7.95414 4.045,8.14669 3.7239,8.31059 3.8321,9.51111 3.1088,8.58006 2.8973,8.65458 2.6913,8.72099 2.7849,9.88133 2.5199,9.95237 2.0115,8.90429 1.8008,8.9497 1.7794,10.11264 1.3529,9.02864 1.1428,9.0566 0.9344,9.08025 0.8096,10.23311 0.4964,9.1122 0.2937,9.11941 0.097,10.25905 -0.1285,9.11786 -0.3227,9.1104 -0.5132,9.09797 -0.8915,11.34221 -0.8095,7.92641 -1.0855,9.03132 -1.4235,10.12258 -1.639,10.08088 -1.6389,8.92367 -1.8,8.88372 -2.2056,9.94011 -2.1277,8.78816 -1.7065,6.56325 -2.0842,7.61831 -2.8212,9.73155 -2.6575,8.59388 -2.7881,8.53678 -2.9142,8.47832 -3.4173,9.46645 -3.1678,8.34938 -3.2803,8.28661 -3.3888,8.22306 -3.9293,9.17211 -3.6046,8.08399 -4.1613,9.01367 -3.802,7.94159 -3.8887,7.87471 -3.9709,7.80592 -4.5542,8.70116 -4.1338,7.66221 -4.2047,7.59482 -4.8032,8.46368 -4.3433,7.45203 -4.4029,7.386 -5.0142,8.23258 -4.5185,7.24687 -4.5695,7.18492 -4.6166,7.12295 -4.66,7.06126 -5.28455,7.87331 -4.74536,6.93667 -5.37447,7.73813 -4.8189,6.81795 -5.45259,7.61015 -4.88425,6.70909 -4.9119,6.65977 -4.93852,6.61373 -5.57996,7.39059 -4.99072,6.52133 -5.01429,6.48166 -5.66181,7.24986 -5.06189,6.40372 -5.08401,6.37026 -4.47276,5.54465 -6.39939,7.89513 -5.15489,6.27938 -5.82229,7.03839 -10.39703,12.47005 -5.91483,6.96261 -5.29272,6.16416 -5.32344,6.1463 -6.02219,6.89861 -5.39364,6.10972 -5.43011,6.09372 -6.15016,6.84133 -5.51388,6.05917 -6.25038,6.80242 -5.60761,6.02328 -5.65554,6.00514 -6.4191,6.73906 -5.76492,5.9628 -5.81997,5.9402 -6.61309,6.6596 -5.94467,5.8856 -6.76011,6.5922 -5.32017,5.088 -6.13996,5.7883 -6.2096,5.7494 -7.06908,6.4226 -7.16408,6.3626 -6.45208,5.5936 -7.35205,6.2292 -6.62448,5.4625 -6.70903,5.3913 -7.6512,5.97792 -6.03199,4.5613 -7.85644,5.7723 -7.08587,5.0121 -8.08846,5.5046 -7.29786,4.7468 -6.47183,4.0263 -17.01573,9.8402 -7.74797,4.0157 -8.855,4.2373 -7.99724,3.4663 -9.13853,3.5207 -8.24821,2.7221 -8.35967,2.2749 -8.45973,1.7441 -9.60887,1.2022 -8.57606,0.232 -8.53248,-0.7224 -8.36655,-1.8688 -8.01541,-3.2073 -8.28357,-5.3669 -6.40911,-6.3427 -5.8802,-8.6559 -4.39786,-9.8684 -2.74701,-9.4537 -1.79683,-9.8499 -0.99256,-10.0863 -0.18315,-3.85032 -0.46073,-7.6284 -1.32269,-11.2182 -1.77355,-9.7229 -2.2962,-9.4368 -3.15196,-10.228 -3.24892,-8.7367 -3.62113,-8.3889 -3.94854,-8.0418 -4.2356,-7.7024 -5.06752,-8.26844 -5.34484,-7.87651 -4.95289,-6.69786 -5.12445,-6.42586 -5.95338,-6.92139 -5.43857,-5.91013 -5.56822,-5.6963 -6.4122,-6.16923 -5.07924,-4.65318 -6.65978,-5.78969 -6.78783,-5.60944 -6.13177,-4.85797 -6.22287,-4.7489 -6.30972,-4.65466 -7.20176,-5.13686 -6.47996,-4.50202 -6.55297,-4.45136 -6.62136,-4.41377 -7.52977,-4.93128 -7.60273,-4.91649 -5.9485,-3.83149 -7.71193,-4.92941 -7.76136,-4.9579 -6.92762,-4.4458 -6.95216,-4.48877 -7.84743,-5.10956 -6.9798,-4.61068 -6.98042,-4.68144 -7.84979,-5.35823 -6.95382,-4.85864 -6.92712,-4.95395 -7.75573,-5.69348 -6.83817,-5.18038 -6.78016,-5.2975 -6.71096,-5.42105 -7.45955,-6.2516 -6.52526,-5.70323 -7.21904,-6.58317 -6.28217,-6.00898 -6.14641,-6.15963 -6.74148,-7.11279 -5.80986,-6.49073 -5.62795,-6.64997 -6.1016,-7.67156 -5.18974,-6.99004 -4.95903,-7.14835 -4.7131,-7.304 -4.4522,-7.45556 -4.83677,-8.50344 -4.27314,-7.60442 -4.2513,-7.64864 -4.75864,-8.65909 -4.19165,-7.74679 -4.15738,-7.79496 -4.11826,-7.84429 -4.58775,-8.88552 -4.52522,-8.95106 -3.95765,-8.01204 -3.89629,-8.06562 -3.82882,-8.12018 -3.75445,-8.17556 -4.1326,-9.26582 -4.01758,-9.33806 -3.45829,-8.36076 -3.34731,-8.4188 -3.62636,-9.54275 -3.07339,-8.54363 -2.9235,-8.6022 -3.09657,-9.7489 -2.54936,-8.72493 -2.34199,-8.78038 -2.36331,-9.94281 -1.81629,-8.88754 -1.51965,-8.92943 -1.31293,-10.08678 -0.75197,-8.98366 -0.31036,-8.98269 0.19449,-8.95476 0.90682,-9.99556 1.51997,-8.75094 2.61418,-9.6041 3.2334,-8.20927 4.15688,-7.77733 5.1167,-7.21015 6.87904,-7.2719 7.0447,-5.59557 8.8058,-5.2518 8.46361,-3.73139 8.91292,-2.89492 9.24159,-2.12537 10.66266,-1.57157 9.64363,-0.74743 9.73853,-0.21441 11.01626,0.31313 9.82466,0.71754 11.05216,1.23303 9.81908,1.43848 9.79827,1.72244 9.77022,1.97793 10.94653,2.49628 9.69517,2.4446 9.65472,2.63483 10.80553,3.16805 9.56236,2.9905 9.51639,3.13882 9.46952,3.27716 10.59031,3.83605 9.36596,3.54251 10.47174,4.11595 9.25791,3.77653 6.91855,2.90914 9.16443,3.95072 7.97839,3.53845 9.05952,4.12221 10.11703,4.73467 10.04044,4.83865 8.86181,4.38953 8.79611,4.4656 8.72729,4.53925 8.655,4.61033 9.64229,5.26333 8.48981,4.75406 8.40512,4.81829 9.34471,5.48877 8.20855,4.94716 8.10703,5.00412 8.98735,5.68845 7.86892,5.1157 8.7,5.80504 7.59463,5.21063 7.45117,5.2478 8.19619,5.93509 7.1129,5.30612 6.93666,5.32119 6.74872,5.32605 7.35114,5.97645 6.31086,5.29413 6.8303,5.90108 5.82425,5.18684 5.58125,5.10253 5.33308,4.99307 5.69974,5.44364 4.80465,4.6628 4.56652,4.45674 9.00101,8.56882 3.96363,3.59653 3.84282,3.25845 4.24234,3.22732 3.75874,2.47475 3.81251,2.09229 4.43525,1.89516 4.13819,1.30324 4.38665,0.96003 5.3046,0.69526 5.09097,0.31461 5.49354,0.0443 6.71824,-0.27375 6.49337,-0.55327 7.05876,-0.95337 19.56683,-7.16196 6.33095,-4.42803 9.25101,-7.08043 7.83381,-6.72442 8.25877,-8.04283 6.7591,-7.52972 6.17508,-7.84292 5.58513,-8.10494 5.60906,-9.37509 3.89043,-7.43184 4.47737,-9.71875 3.52558,-8.75299 3.5351,-9.96314 2.80605,-8.93681 2.84957,-10.14523 2.29939,-9.08468 2.38475,-10.30106 1.97291,-9.21789 1.87487,-9.27891 1.80969,-9.3382 2.0022,-10.58064 1.55024,-8.27065 2.04062,-10.70815 1.88118,-9.56851 2.24442,-10.82562 2.42574,-10.87587 2.34922,-9.6918 2.92045,-10.92364 2.88412,-9.69619 3.20534,-9.6616 3.57212,-9.59358 4.51521,-10.66465 4.49229,-9.29889 4.97842,-9.0711 6.20879,-9.85742 6.0562,-8.36895 6.55008,-7.93952 7.92463,-8.36212 7.48347,-6.87721 7.84735,-6.34142 8.1586,-5.80538 9.4867,-5.9222 8.66864,-4.68582 10.00664,-4.51776 9.08095,-3.22623 9.20759,-2.38066 10.42201,-1.55362 9.20567,-0.28872 7.91858,0.62444 9.88559,1.97705 8.393,2.82826 8.9174,4.2623 7.4098,4.64098 7.747,6.02543 6.3624,5.9662 6.6022,7.27052 5.3941,6.88339 4.9796,7.20845 5.1444,8.429 4.1849,7.73736 3.8473,7.92744 3.5296,8.08883 3.618,9.25858 2.9219,8.35269 2.7134,8.42405 2.5106,8.48728 2.5851,9.61458 2.3241,9.68161 1.8408,8.66026 1.6334,8.70249 1.5951,9.83077 1.1924,8.77473 0.9858,8.79956 0.7807,8.82002 0.6408,9.93655 0.3502,8.84518 0.1509,8.84918 -0.059,9.95112 -0.2635,8.84067 -0.454,8.82989 -0.6408,8.81409 -1.0456,10.98259 -0.9137,7.67146 -1.2009,8.73667 -1.5485,9.78687 -1.7588,9.7406 -1.7408,8.61732 -1.8977,8.57364 -2.3102,9.58679 -2.2159,8.47004 -1.7695,6.32211 -2.1544,7.3342 -2.906,9.36184 -2.7276,8.26099 -2.8531,8.19987 -2.9738,8.13735 -3.478,9.0779 -3.2156,7.99967 -3.3224,7.93277 -3.4249,7.86507 -3.9624,8.76448 -3.6273,7.71728 -4.179,8.59631 -3.8103,7.56633 -3.89,7.49546 -3.9649,7.42286 -4.5386,8.2657 -4.1115,7.27124 -4.1745,7.20033 -4.7594,8.01589 -4.2953,7.05061 -4.3462,6.98159 -4.9398,7.77431 -4.44269,6.83694 -4.48412,6.77265 -4.52171,6.70871 -4.55541,6.6454 -5.15494,7.40399 -4.6194,6.51839 -5.2205,7.26694 -4.67103,6.39901 -5.27369,7.1392 -4.71401,6.29126 -4.73108,6.24319 -4.74707,6.19882 -5.3519,6.9264 -4.77682,6.11161 -4.7899,6.07509 -5.39701,6.79693 -4.81567,6.00557 -4.82776,5.97683 -4.24047,5.20463 -6.05487,7.41696 -4.86879,5.90375 -5.48973,6.62376 -9.77931,11.75557 -5.55335,6.57441 -4.96352,5.82791 -4.98724,5.81866 -5.63618,6.54074 -5.0441,5.80142 -5.07496,5.79487 -5.74456,6.51671 -5.14843,5.78108 -5.83436,6.50155 -5.23399,5.76657 -5.27875,5.75861 -5.99202,6.47394 -5.38293,5.73808 -5.43622,5.72559 -6.17975,6.43035 -5.55848,5.6925 -6.32496,6.3869 -4.9815,4.937 -5.75302,5.6249 -5.82304,5.5956 -6.63503,6.2608 -6.73119,6.2125 -6.06853,5.4698 -6.92218,6.1005 -6.24398,5.3573 -6.33021,5.2945 -7.22708,5.8788 -5.70373,4.4912 -7.43648,5.691 -6.71454,4.94812 -7.67286,5.4412 -6.93031,4.6983 -6.15158,3.9896 -16.19716,9.7702 -7.38599,3.9954 -8.44865,4.2224 -7.63641,3.4601 -8.73258,3.5214 -7.88684,2.7297 -7.99738,2.289 -8.09609,1.765 -9.19787,1.2338 -8.20908,0.2674 -8.16481,-0.6801 -8.00032,-1.8197 -7.65477,-3.1523 -7.89307,-5.2996 -6.0849,-6.2808 -5.55103,-8.5873 -4.11122,-9.804 -2.52732,-9.4014 -1.60697,-9.80252 -0.82869,-10.0438 -0.12772,-3.8355 -0.34338,-7.5967 -1.11165,-11.1593 -1.55125,-9.6581 -2.0427,-9.3594 -2.83208,-10.1251 -2.93655,-8.6305 -3.28533,-8.2683 -3.59224,-7.90629 -3.86175,-7.55177 -4.62951,-8.0807 -4.89215,-7.66926 -4.54114,-6.49732 -4.70646,-6.21014 -5.47848,-6.66086 -5.01466,-5.66315 -5.14468,-5.4353 -5.93839,-5.85958 -4.71411,-4.40119 -6.19645,-5.45221 -6.33312,-5.25783 -5.73617,-4.53455 -5.8364,-4.41612 -5.93326,-4.31343 -6.7911,-4.744 -6.127,-4.14581 -6.21185,-4.08946 -6.29244,-4.04702 -7.17459,-4.5139 -7.26346,-4.49507 -5.69565,-3.50159 -7.40098,-4.50324 -7.46618,-4.53026 -6.67827,-4.06503 -6.71487,-4.10791 -7.59455,-4.68145 -6.76722,-4.23084 -6.779,-4.30256 -7.63614,-4.93342 -6.77503,-4.48249 -6.75846,-4.57931 -7.57766,-5.27391 -6.68991,-4.80914 -6.641,-4.9279 -6.58059,-5.05302 -7.32302,-5.83939 -6.41261,-5.33833 -7.10176,-6.17421 -6.18609,-5.6467 -6.05778,-5.79837 -6.65044,-6.70737 -5.73646,-6.13111 -5.56149,-6.29088 -6.03496,-7.26803 -5.13762,-6.63162 -4.91353,-6.79005 -4.67417,-6.94573 -4.41977,-7.09724 -4.80816,-8.10241 -4.25467,-7.25205 -4.23917,-7.30024 -4.75229,-8.27202 -4.19225,-7.40714 -4.16363,-7.45953 -4.12997,-7.5131 -4.60716,-8.51802 -4.551,-8.58893 -3.98569,-7.69462 -3.92898,-7.75237 -3.86597,-7.81102 -3.79593,-7.8704 -4.18425,-8.9272 -4.07433,-9.0042 -3.5129,-8.06786 -3.40573,-8.12935 -3.69652,-9.22104 -3.13966,-8.26091 -2.99338,-8.32234 -3.1795,-9.43716 -2.6269,-8.4503 -2.42317,-8.50778 -2.45905,-9.63817 -1.90543,-8.61821 -1.6127,-8.66109 -1.4225,-9.78561 -0.85389,-8.71617 -0.41679,-8.71502 0.0833,-8.68657 0.77586,-9.69291 1.39812,-8.48103 2.47095,-9.29973 3.10083,-7.93888 4.01998,-7.5084 4.97644,-6.94457 6.71893,-6.98005 6.90209,-5.34491 8.64694,-4.98212 8.32509,-3.50382 8.77759,-2.67899 9.10968,-1.92061 10.51825,-1.35349 9.51846,-0.56331 9.61596,-0.0383 10.8809,0.50308 9.70608,0.88017 10.92016,1.41011 9.70249,1.59155 9.68199,1.87213 9.65385,2.12485 10.81506,2.65894 9.57742,2.58737 9.53578,2.77636 10.66988,3.32627 9.43978,3.13066 9.39158,3.27887 9.34214,3.41741 10.4435,3.99442 9.23196,3.68413 10.31657,4.27654 9.11563,3.92068 6.80889,3.01828 9.01395,4.09776 7.84239,3.66872 8.89873,4.27312 9.92868,4.90726 9.84345,5.01451 8.67877,4.5488 8.60494,4.62787 8.52729,4.70466 8.44546,4.77903 9.39409,5.45724 8.25716,4.9302 8.16015,4.99808 9.05309,5.69549 7.93383,5.13484 7.81644,5.19548 8.63978,5.908 7.53999,5.31442 8.30547,6.03225 7.22026,5.41536 7.05263,5.45456 7.71649,6.16917 6.65639,5.51444 6.44952,5.52848 6.22875,5.53078 6.72407,6.20144 5.7136,5.48686 6.11072,6.10623 5.14012,5.35528 4.85359,5.25399 4.56072,5.12331 4.77685,5.55887 3.93674,4.73167 3.65535,4.48831 6.93536,8.48642 2.94126,3.47603 2.79772,3.07953 3.05028,2.95239 2.69562,2.16335 2.75719,1.71822 3.27117,1.40266 3.13574,0.80681 3.42514,0.41534 4.2826,0.0352 4.24357,-0.30338 4.70945,-0.59181 5.91734,-0.99598 5.85812,-1.18569 6.50183,-1.55761 18.77031,-8.12126 6.29337,-4.47644 9.24551,-7.08753 7.87644,-6.66949 8.35499,-7.92029 6.88246,-7.37542 6.32894,-7.65477 5.76447,-7.8914 5.8353,-9.11406 4.08049,-7.21942 4.73542,-9.43982 3.76438,-8.50407 3.81077,-9.68617 3.05472,-8.696 3.13082,-9.88266 2.5488,-8.86011 2.66269,-10.05952 2.21614,-9.01372 2.1132,-9.08512 2.04196,-9.15509 2.25488,-10.38764 1.73958,-8.13014 2.27355,-10.53997 2.07719,-9.43088 2.45113,-10.68423 2.61635,-10.74881 2.50376,-9.59108 3.076,-10.82429 3.00467,-9.62058 3.30787,-9.59822 3.65526,-9.54281 4.58401,-10.62306 4.53025,-9.27611 4.99367,-9.06197 6.19835,-9.86367 6.02262,-8.38908 6.49452,-7.97304 7.8377,-8.41506 7.3867,-6.93686 7.7346,-6.41188 8.03231,-5.88555 9.33165,-6.02244 8.52027,-4.78366 9.82696,-4.63882 8.90931,-3.34455 9.02451,-2.5098 10.20279,-1.71233 9.00015,-0.44169 7.73186,0.48187 9.63846,1.78293 8.16915,2.64689 8.6637,4.05017 7.1846,4.44659 7.4958,5.80152 6.1419,5.76334 6.3581,7.03864 5.181,6.67438 4.7701,6.99688 4.9134,8.18804 3.9835,7.52056 3.6494,7.70819 3.3355,7.86708 3.4037,9.00605 2.7351,8.12532 2.5296,8.19353 2.3297,8.25356 2.3854,9.34782 2.1284,9.41086 1.6702,8.41623 1.466,8.45529 1.4105,9.54889 1.032,8.52083 0.8288,8.5425 0.6271,8.5598 0.4721,9.63998 0.2038,8.57818 0.01,8.57893 -0.2153,9.6432 -0.3986,8.56349 -0.5853,8.54937 -0.7684,8.5302 -1.1996,10.62298 -1.018,7.41651 -1.3162,8.44202 -1.6735,9.45116 -1.8786,9.40032 -1.8427,8.31097 -1.9955,8.26356 -2.4147,9.23347 -2.3041,8.15193 -1.8326,6.08096 -2.2246,7.0501 -2.9908,8.99213 -2.7977,7.9281 -2.918,7.86296 -3.0335,7.79636 -3.5386,8.68937 -3.2635,7.64995 -3.3645,7.57893 -3.4609,7.50708 -3.9957,8.35685 -3.6499,7.35056 -4.1966,8.17895 -3.8187,7.19107 -3.8913,7.11622 -3.9589,7.0398 -4.5229,7.83023 -4.0894,6.88028 -4.14422,6.80583 -4.71559,7.56812 -4.24735,6.64919 -4.28953,6.57718 -4.86534,7.31603 -4.36679,6.427 -4.39882,6.36039 -4.42683,6.29447 -4.45076,6.22954 -5.02535,6.93466 -4.49343,6.10011 -5.06655,6.79577 -4.52315,5.98007 -5.0948,6.66825 -4.54377,5.87342 -4.55026,5.82662 -4.55562,5.7839 -5.12385,6.46221 -4.56291,5.70188 -4.56551,5.66854 -5.13222,6.34399 -4.56944,5.60742 -4.57152,5.58341 -4.00818,4.8646 -5.71033,6.93879 -4.5827,5.52811 -5.15717,6.20913 -9.1616,11.0411 -5.19185,6.18621 -4.63433,5.49165 -4.65103,5.49103 -5.25019,6.18287 -4.69455,5.49311 -4.71982,5.49603 -5.33894,6.19209 -4.78299,5.503 -5.41834,6.20066 -4.86036,5.50987 -4.90198,5.51208 -5.56492,6.20881 -5.00095,5.51328 -5.05247,5.51101 -5.7464,6.20114 -5.17229,5.49942 -5.88981,6.18174 -4.64285,4.78595 -5.36607,5.4615 -5.43648,5.4418 -6.20098,6.099 -6.2983,6.0624 -5.68497,5.346 -6.49232,5.9718 -5.86349,5.2521 -5.95138,5.1976 -6.80297,5.7798 -5.37547,4.4212 -7.01651,5.6097 -6.34321,4.8839 -7.25726,5.378 -6.56277,4.6497 -5.83131,3.9529 -15.3786,9.70012 -7.02402,3.9753 -8.04229,4.2075 -7.27559,3.4538 -8.32663,3.5222 -7.52546,2.7372 -7.63509,2.3032 -7.73246,1.7858 -8.78686,1.2654 -7.8421,0.3027 -7.79713,-0.6376 -7.63409,-1.7707 -7.29414,-3.0972 -7.50257,-5.2324 -5.76069,-6.2189 -5.22185,-8.5188 -3.82459,-9.73952 -2.30764,-9.349 -1.4171,-9.7551 -0.66483,-10.0013 -0.0723,-3.8208 -0.22605,-7.5651 -0.9006,-11.1003 -1.32896,-9.5932 -1.7892,-9.2822 -2.51218,-10.02223 -2.62419,-8.52426 -2.94953,-8.14763 -3.23594,-7.77087 -3.4879,-7.40114 -4.19151,-7.89295 -4.43945,-7.46201 -4.1294,-6.29677 -4.28846,-5.99441 -5.00358,-6.40035 -4.59076,-5.41616 -4.72113,-5.17431 -5.46457,-5.54993 -4.349,-4.14919 -5.73311,-5.11474 -5.87842,-4.90622 -5.34056,-4.21112 -5.44994,-4.08335 -5.55679,-3.9722 -6.38043,-4.35114 -5.77405,-3.78959 -5.87074,-3.72755 -5.96352,-3.68027 -6.81941,-4.09653 -6.92417,-4.07366 -5.44281,-3.17168 -7.09004,-4.07707 -7.17099,-4.10261 -6.42893,-3.68428 -6.47757,-3.72704 -7.34167,-4.25333 -6.55465,-3.85101 -6.57758,-3.92369 -7.42248,-4.5086 -6.59624,-4.10635 -6.58979,-4.20467 -7.3996,-4.85432 -6.54166,-4.43792 -6.50184,-4.55828 -6.45021,-4.68501 -7.18649,-5.42717 -6.29995,-4.97343 -6.9845,-5.76526 -6.09,-5.28441 -5.96915,-5.4371 -6.5594,-6.30195 -5.66307,-5.77149 -5.49502,-5.93179 -5.96831,-6.86451 -5.08551,-6.2732 -4.86804,-6.43175 -4.63522,-6.58746 -4.38734,-6.73892 -4.77956,-7.70139 -4.23621,-6.89967 -4.22704,-6.95184 -4.74593,-7.88494 -4.19285,-7.0675 -4.16989,-7.1241 -4.14166,-7.18191 -4.62658,-8.15052 -4.57678,-8.2268 -4.01374,-7.3772 -3.96165,-7.43912 -3.90313,-7.50186 -3.83741,-7.56525 -4.2359,-8.58857 -4.13109,-8.67035 -3.5675,-7.77494 -3.46414,-7.83991 -3.76669,-8.89932 -3.20593,-7.97821 -3.06327,-8.04247 -3.26242,-9.12543 -2.70444,-8.17566 -2.50435,-8.23517 -2.5548,-9.33355 -1.99457,-8.34887 -1.70575,-8.39275 -1.53206,-9.48444 -0.95582,-8.44868 -0.52321,-8.44735 -0.0278,-8.41837 0.6449,-9.39027 1.27627,-8.21111 2.32771,-8.99538 2.96828,-7.66848 3.88309,-7.23947 4.83616,-6.67899 6.55883,-6.6882 6.75947,-5.09425 8.4881,-4.71244 8.18656,-3.27625 8.64226,-2.46306 8.97777,-1.71585 10.37383,-1.13541 9.39331,-0.37919 9.49339,0.13786 10.74553,0.69303 9.5875,1.04279 10.78816,1.58719 9.58591,1.74463 9.5657,2.02181 9.53749,2.27178 10.68358,2.82158 9.45967,2.73015 9.41684,2.91788 10.53423,3.4845 9.3172,3.27082 9.26677,3.41892 9.21476,3.55765 10.29669,4.15281 9.09797,3.82573 10.1614,4.43714 8.97334,4.06484 6.69923,3.1274 8.86347,4.24481 7.70639,3.799 8.73794,4.42401 9.74033,5.07985 9.64646,5.19037 8.49574,4.70809 8.41376,4.79014 8.3273,4.87007 8.2359,4.94772 9.1459,5.65114 8.02451,5.10636 7.91518,5.17787 8.76146,5.90219 7.65912,5.32253 7.52585,5.38684 8.29221,6.12755 7.21107,5.51315 7.91093,6.25945 6.8459,5.6201 6.65409,5.6613 7.23679,6.40326 6.19987,5.72275 5.96238,5.73577 5.70877,5.73553 6.097,6.42641 5.11635,5.67959 5.39114,6.31138 4.456,5.52373 4.12592,5.40545 3.78836,5.25355 3.85396,5.67409 3.06882,4.80056 2.74419,4.51987 4.86971,8.40402 1.91889,3.35554 1.75262,2.90059 1.85822,2.67748 1.6325,1.85194 1.70187,1.34414 2.10708,0.91016 2.13331,0.31039 2.46361,-0.12936 3.2606,-0.62491 3.39618,-0.92138 3.92537,-1.22791 5.11642,-1.71821 5.22288,-1.81811 5.9449,-2.16185 17.97378,-9.08057 6.25579,-4.52483 9.24002,-7.09464 7.91908,-6.61455 8.45119,-7.79776 7.00583,-7.22111 6.48281,-7.46663 5.9438,-7.67785 6.06154,-8.85304 4.27056,-7.00699 4.99345,-9.16091 4.00319,-8.25514 4.08645,-9.40919 3.30338,-8.4552 3.41207,-9.6201 2.79821,-8.63553 2.94063,-9.81798 2.45937,-8.80956 2.35153,-8.89132 2.27423,-8.97197 2.50757,-10.19465 1.92892,-7.98963 2.50646,-10.3718 2.27321,-9.29324 2.65784,-10.54283 2.80695,-10.62176 2.65832,-9.49035 3.23154,-10.72495 3.12523,-9.54496 3.41039,-9.53486 3.73841,-9.49203 4.65281,-10.58147 4.5682,-9.25333 5.00891,-9.05285 6.18791,-9.86991 5.98905,-8.40922 6.43897,-8.00654 7.75077,-8.46801 7.28991,-6.99651 7.62185,-6.48234 7.90602,-5.96571 9.17661,-6.12269 8.37191,-4.88151 9.64728,-4.75987 8.73765,-3.46286 8.84144,-2.63894 9.98358,-1.87106 8.79464,-0.59465 7.54514,0.33929 9.39134,1.58881 7.9453,2.46553 8.41001,3.83804 6.95939,4.2522 7.2446,5.57761 5.9214,5.56048 6.114,6.80677 4.9679,6.46536 4.5607,6.78531 4.6823,7.94707 3.782,7.30378 3.4517,7.48894 3.1413,7.64532 3.1895,8.75352 2.5482,7.89794 2.3458,7.96301 2.1489,8.01984 2.1857,9.08108 1.9326,9.1401 1.4995,8.17219 1.2986,8.2081 1.2261,9.26701 0.8716,8.26692 0.6717,8.28546 0.4734,8.29957 0.3034,9.34342 0.058,8.31116 -0.1345,8.30869 -0.3716,9.33528 -0.5337,8.28631 -0.7166,8.26885 -0.8959,8.24632 -1.3536,10.26336 -1.1222,7.16155 -1.4317,8.14739 -1.7985,9.11544 -1.9983,9.06005 -1.9448,8.0046 -2.093,7.95349 -2.5194,8.88015 -2.3922,7.83382 -1.8957,5.83982 -2.2949,6.76599 -3.0756,8.62242 -2.8678,7.59521 -2.9829,7.52605 -3.0932,7.45538 -3.5991,8.30082 -3.3114,7.30024 -3.4066,7.22508 -3.4969,7.1491 -4.0289,7.94921 -3.6726,6.98386 -4.2142,7.76159 -3.8271,6.8158 -3.89265,6.73698 -3.95297,6.65674 -4.50716,7.39477 -4.06714,6.48931 -4.11406,6.41134 -4.67177,7.12034 -4.19939,6.24776 -4.23286,6.17277 -4.79089,6.85776 -4.29088,6.01706 -4.31353,5.94813 -4.33194,5.88022 -4.34611,5.8137 -4.89576,6.46532 -4.36747,5.68183 -4.91259,6.3246 -4.37527,5.56113 -4.91592,6.1973 -4.37352,5.45558 -4.36944,5.41004 -4.36417,5.36899 -4.8958,5.99803 -4.349,5.29215 -4.34113,5.26197 -4.86742,5.89106 -4.32322,5.20927 -4.31526,5.18998 -3.77589,4.52458 -5.36581,6.46062 -4.2966,5.15247 -4.82461,5.7945 -8.54388,10.32663 -4.83037,5.79801 -4.30512,5.1554 -4.31484,5.16339 -4.86419,5.825 -4.345,5.18481 -4.36467,5.19718 -4.93333,5.86747 -4.41756,5.22492 -5.00232,5.89978 -4.48672,5.25316 -4.5252,5.26556 -5.13783,5.94367 -4.61897,5.28848 -4.66872,5.29643 -5.31306,5.97189 -4.7861,5.30638 -5.45465,5.97649 -4.30419,4.63494 -4.97913,5.29801 -5.04992,5.28794 -5.76693,5.93731 -5.86541,5.9123 -5.30142,5.2222 -6.06244,5.8431 -5.483,5.1468 -5.57256,5.1009 -6.37885,5.6806 -5.04721,4.3512 -6.59655,5.5285 -5.97188,4.8197 -6.84167,5.3147 -6.19522,4.6011 -5.51105,3.9164 -14.56003,9.63 -6.66204,3.955 -7.63594,4.1927 -6.91477,3.4475 -7.92067,3.5229 -7.16409,2.74482 -7.27279,2.3174 -7.36884,1.8066 -8.37585,1.297 -7.47512,0.3381 -7.42945,-0.5953 -7.26787,-1.7216 -6.9335,-3.0422 -7.11207,-5.16512 -5.43649,-6.157 -4.89267,-8.4502 -3.53795,-9.6751 -2.08795,-9.2966 -1.22723,-9.7077 -0.50097,-9.9588 -0.0168,-3.8062 -0.10871,-7.5333 -0.68956,-11.0413 -1.10666,-9.52851 -1.5357,-9.2048 -2.1923,-9.91938 -2.31182,-8.41805 -2.61373,-8.02697 -2.87965,-7.63538 -3.11404,-7.25053 -3.75351,-7.70519 -3.98675,-7.25475 -3.71766,-6.09623 -3.87046,-5.77868 -4.52868,-6.13983 -4.16685,-5.16917 -4.29759,-4.91332 -4.99076,-5.24028 -3.98387,-3.8972 -5.26978,-4.77726 -5.42371,-4.55462 -4.94496,-3.88769 -5.06347,-3.75058 -5.18033,-3.63097 -5.96977,-3.95827 -5.42109,-3.43337 -5.52963,-3.36566 -5.63459,-3.31352 -6.46423,-3.67915 -6.5849,-3.65224 -5.18996,-2.84177 -6.77909,-3.65091 -6.87581,-3.67496 -6.17958,-3.30352 -6.24028,-3.34618 -7.08879,-3.82522 -6.34207,-3.47117 -6.37616,-3.54481 -7.20883,-4.0838 -6.41745,-3.73019 -6.42113,-3.83003 -7.22154,-4.43475 -6.39339,-4.06669 -6.36268,-4.18867 -6.31984,-4.31698 -7.04995,-5.01496 -6.1873,-4.60853 -6.86723,-5.3563 -5.99392,-4.92213 -5.88052,-5.07583 -6.46836,-5.89654 -5.58967,-5.41186 -5.42855,-5.5727 -5.90168,-6.46099 -5.03339,-5.91477 -4.82254,-6.07346 -4.59629,-6.22919 -4.35491,-6.3806 -4.75094,-7.30036 -4.21776,-6.5473 -4.2149,-6.60344 -4.73959,-7.49787 -4.19344,-6.72786 -4.17614,-6.78866 -4.15336,-6.85072 -4.646,-7.78302 -4.60257,-7.86467 -4.04177,-7.05978 -3.99434,-7.12587 -3.94028,-7.1927 -3.87889,-7.2601 -4.28755,-8.24993 -4.18784,-8.3365 -3.62211,-7.48204 -3.52255,-7.55046 -3.83687,-8.5776 -3.27219,-7.6955 -3.13315,-7.76262 -3.34535,-8.81368 -2.78199,-7.90103 -2.58553,-7.96257 -2.65055,-9.02891 -2.08369,-8.07954 -1.79881,-8.1244 -1.64162,-9.18327 -1.05775,-8.18121 -0.62964,-8.17967 -0.13897,-8.15017 0.51393,-9.08763 1.15443,-7.9412 2.18448,-8.69102 2.83573,-7.39808 3.74618,-6.97054 4.6959,-6.41342 6.39872,-6.39633 6.61686,-4.8436 8.32924,-4.44276 8.04804,-3.04868 8.50693,-2.24713 8.84587,-1.51109 10.22941,-0.91733 9.26814,-0.19507 9.37082,0.314 10.61017,0.88297 9.46893,1.20542 10.65615,1.76428 9.46932,1.89769 9.44943,2.17151 9.42111,2.41869 10.55212,2.98424 9.34191,2.87291 9.2979,3.05942 10.39858,3.64272 9.19462,3.41098 9.14196,3.55897 9.08737,3.6979 10.14989,4.31118 8.96397,3.96735 10.00623,4.59773 8.83105,4.20899 6.58958,3.23653 8.71299,4.39186 7.5704,3.92927 8.57714,4.57492 9.55199,5.25244 9.44946,5.36623 8.3127,4.86737 8.22259,4.9524 8.12731,5.03548 8.02635,5.11642 8.89769,5.84505 7.79186,5.2825 7.67022,5.35767 8.46984,6.1089 7.3844,5.5102 7.23527,5.57821 7.94462,6.34709 6.88215,5.71188 7.5164,6.48666 6.47153,5.82483 6.25555,5.86806 6.75709,6.63734 5.74336,5.93107 5.47525,5.94305 5.18879,5.94027 5.46993,6.6514 4.51908,5.87231 4.67157,6.51654 3.77187,5.69217 3.39826,5.55691 3.016,5.38378 2.93107,5.78933 2.20091,4.86943 1.83301,4.55144 2.80408,8.32162 0.89651,3.23505 0.70751,2.72166 0.66617,2.40256 0.56938,1.54052 0.64655,0.97008 0.943,0.41766 1.13086,-0.18604 1.5021,-0.67405 2.23859,-1.285 2.54878,-1.53937 3.14129,-1.86402 4.31552,-2.44044 4.58763,-2.45053 5.38796,-2.76609 17.17727,-10.03988 6.2182,-4.57323 9.23453,-7.10174 7.96171,-6.55962 8.54741,-7.67522 7.1292,-7.06681 6.63666,-7.27849 6.12314,-7.46429 6.28778,-8.59202 4.46063,-6.79457 5.25149,-8.88198 4.24199,-8.00622 4.36212,-9.13222 3.55205,-8.21439 3.69332,-9.35753 3.04762,-8.41096 3.21857,-9.57643 2.7026,-8.6054 2.58986,-8.69753 2.50649,-8.78886 2.76026,-10.00164 2.11826,-7.84913 2.73939,-10.20362 2.46922,-9.15561 2.86455,-10.40143 2.99756,-10.49471 2.81286,-9.38962 3.38709,-10.6256 3.24579,-9.46935 3.5129,-9.47149 3.82156,-9.44126 4.72162,-10.53988 4.60614,-9.23054 5.02417,-9.04374 6.17747,-9.87615 5.95548,-8.42935 6.3834,-8.04006 7.66384,-8.52094 7.19313,-7.05617 7.50911,-6.5528 7.77972,-6.04588 9.02157,-6.22294 8.22354,-4.97935 9.4676,-4.88092 8.56601,-3.58118 8.65835,-2.76807 9.76437,-2.02978 8.58913,-0.74761 7.35842,0.19671 9.14422,1.39469 7.72145,2.28416 8.1563,3.62591 6.73421,4.05781 6.99332,5.3537 5.70099,5.35762 5.87,6.57489 4.7547,6.25634 4.3513,6.57375 4.4512,7.70611 3.5805,7.08699 3.254,7.26969 2.9471,7.42356 2.9752,8.501 2.3614,7.67056 2.1619,7.73249 1.9681,7.78612 1.986,8.81433 1.7368,8.86935 1.3289,7.92815 1.1312,7.9609 1.0417,8.98513 0.7111,8.01302 0.5146,8.02841 0.3198,8.03933 0.1347,9.04687 -0.089,8.04415 -0.2772,8.03845 -0.5279,9.02734 -0.6686,8.00914 -0.848,7.98833 -1.0235,7.96244 -1.5077,9.90374 -1.2264,6.9066 -1.547,7.85274 -1.9235,8.77973 -2.1181,8.71977 -2.0467,7.69825 -2.1908,7.64341 -2.624,8.52683 -2.4803,7.5157 -1.9588,5.59868 -2.3651,6.48189 -3.1604,8.2527 -2.9379,7.26232 -3.0479,7.18914 -3.1527,7.11441 -3.6598,7.91227 -3.3593,6.95053 -3.44857,6.87124 -3.53309,6.79111 -4.06201,7.54158 -3.69535,6.61714 -4.23178,7.34424 -3.8355,6.44053 -3.89396,6.35774 -3.947,6.27368 -4.49145,6.9593 -4.04494,6.09835 -4.08385,6.01684 -4.62794,6.67256 -4.15143,5.84635 -4.17619,5.76836 -4.71644,6.39948 -4.21498,5.60712 -4.22823,5.53587 -4.23706,5.46598 -4.24147,5.39784 -4.76616,5.99599 -4.24151,5.26356 -4.75862,5.85341 -4.22741,5.1422 -4.73702,5.72635 -4.20329,5.03774 -4.1886,4.99347 -4.17273,4.95407 -4.66774,5.53384 -4.1351,4.88242 -4.11674,4.85541 -4.60262,5.43813 -4.077,4.81112 -4.05902,4.79655 -3.5436,4.18456 -5.02127,5.98245 -4.01051,4.77684 -4.49205,5.37987 -7.92616,9.61215 -4.46889,5.4098 -3.97592,4.81915 -3.97864,4.83576 -4.47818,5.46713 -3.99546,4.87651 -4.00953,4.89833 -4.52772,5.54284 -4.05211,4.94685 -4.5863,5.59889 -4.11309,4.99646 -4.14842,5.01903 -4.71074,5.67854 -4.237,5.06368 -4.28496,5.08186 -4.87971,5.74264 -4.39992,5.11332 -5.0195,5.77125 -3.96552,4.48393 -4.59219,5.13458 -4.66336,5.13409 -5.33288,5.77549 -5.43252,5.76224 -4.91787,5.09834 -5.63257,5.7144 -5.10251,5.04168 -5.19373,5.0041 -5.95474,5.5815 -4.71895,4.2811 -6.17658,5.4472 -5.60055,4.7556 -6.42607,5.2514 -5.82768,4.5526 -5.19078,3.8797 -13.74147,9.5599 -6.30007,3.9348 -7.22958,4.1778 -6.55395,3.4413 -7.51472,3.5236 -6.80272,2.7525 -6.91049,2.3315 -7.0052,1.8274 -7.96485,1.3285 -7.10814,0.3736 -7.06178,-0.553 -6.90163,-1.6725 -6.57287,-2.9871 -6.72157,-5.098 -5.11228,-6.095 -4.5635,-8.3816 -3.25131,-9.6107 -1.86826,-9.2442 -1.03737,-9.6604 -0.33711,-9.9163 0.0386,-3.7914 0.009,-7.5016 -0.47851,-10.98243 -0.88437,-9.46363 -1.28219,-9.12748 -1.87241,-9.81651 -1.99945,-8.31184 -2.27793,-7.90632 -2.52336,-7.49989 -2.74019,-7.09991 -3.31551,-7.51743 -3.53405,-7.04749 -3.30592,-5.89569 -3.45246,-5.56295 -4.05379,-5.87931 -3.74294,-4.92219 -3.87404,-4.65232 -4.51695,-4.93063 -3.61875,-3.64521 -4.80644,-4.43978 -4.969,-4.20302 -4.54936,-3.56426 -4.67701,-3.4178 -4.80386,-3.28975 -5.5591,-3.56541 -5.06813,-3.07715 -5.18853,-3.00376 -5.30566,-2.94676 -6.10905,-3.26177 -6.24562,-3.23083 -4.93713,-2.51187 -6.46814,-3.22474 -6.58062,-3.24732 -5.93024,-2.92276 -6.00298,-2.96531 -6.83591,-3.39711 -6.12949,-3.09133 -6.17475,-3.16593 -6.99516,-3.65899 -6.23867,-3.35405 -6.25247,-3.45538 -7.04347,-4.01518 -6.24514,-3.69545 -6.22351,-3.81907 -6.18946,-3.94895 -6.91343,-4.60276 -6.07465,-4.24362 -6.74996,-4.94735 -5.89783,-4.55984 -5.79189,-4.71456 -6.37732,-5.49112 -5.51627,-5.05225 -5.36209,-5.2136 -5.83504,-6.05748 -4.98128,-5.55634 -4.77704,-5.71517 -4.55734,-5.87091 -4.32248,-6.02228 -4.72234,-6.89933 -4.19929,-6.19493 -4.20278,-6.25504 -4.73323,-7.11079 -4.19404,-6.38822 -4.18239,-6.45323 -4.16506,-6.51953 -4.66542,-7.41552 -4.62835,-7.50254 -4.06981,-6.74237 -4.02702,-6.81261 -3.97745,-6.88354 -3.92036,-6.95495 -4.3392,-7.9113 -4.2446,-8.00265 -3.67671,-7.18912 -3.58097,-7.26101 -3.90703,-8.25589 -3.33846,-7.41279 -3.20304,-7.48276 -3.42827,-8.50194 -2.85953,-7.6264 -2.66671,-7.68997 -2.7463,-8.72428 -2.17283,-7.8102 -1.89186,-7.85606 -1.75119,-8.8821 -1.15968,-7.91372 -0.73606,-7.912 -0.25012,-7.88198 0.38297,-8.78498 1.03258,-7.67129 2.04125,-8.38665 2.70317,-7.12768 3.60928,-6.70162 4.55563,-6.14784 6.23862,-6.10448 6.47424,-4.59294 8.1704,-4.17308 7.90951,-2.82112 8.3716,-2.03119 8.71396,-1.30633 10.08499,-0.69925 9.14298,-0.011 9.24825,0.49013 10.47481,1.07292 9.35035,1.36804 10.52414,1.94137 9.35275,2.05076 9.33314,2.3212 9.30475,2.56561 10.42064,3.14689 9.22416,3.01569 9.17896,3.20094 10.26293,3.80095 9.07204,3.55114 9.01715,3.69901 8.95999,3.83815 10.00309,4.46956 8.82997,4.10896 9.85106,4.75833 8.68876,4.35314 6.47992,3.34567 8.56251,4.5389 7.4344,4.05954 8.41635,4.72582 9.36364,5.42503 9.25247,5.5421 8.12967,5.02665 8.03141,5.11467 7.92731,5.20088 7.8168,5.28512 8.6495,6.03896 7.55921,5.45864 7.42525,5.53746 8.17821,6.31561 7.1097,5.69789 6.94467,5.76957 7.59705,6.56664 6.55323,5.91061 7.12186,6.71386 6.09716,6.02956 5.85702,6.07481 6.27739,6.87143 5.28684,6.13938 4.98811,6.15034 4.66881,6.14501 4.84287,6.87639 3.92182,6.06503 3.95199,6.7217 3.08774,5.86061 2.67061,5.70836 2.24362,5.51403 2.00819,5.90455 1.33299,4.93831 0.92185,4.58301 0.73843,8.23922 -0.12586,3.11456 -0.33759,2.54273 -0.5259,2.12764 -0.49373,1.22911 -0.40877,0.59601 -0.22109,-0.0748 0.12843,-0.68248 0.54058,-1.21874 1.21659,-1.94508 1.70138,-2.15737 2.35721,-2.50012 3.51461,-3.16268 3.95238,-3.08293 4.83103,-3.37034 16.38074,-10.99918 6.18063,-4.62163 9.22902,-7.10885 8.00435,-6.50468 8.64362,-7.55269 7.25257,-6.91251 6.79053,-7.09034 6.30247,-7.25074 6.51402,-8.331 4.65069,-6.58214 5.50953,-8.60306 4.4808,-7.7573 4.63779,-8.85524 3.80072,-7.97359 3.97457,-9.09497 3.29703,-8.18638 3.49651,-9.33489 2.94583,-8.40123 2.82819,-8.50374 2.73876,-8.60575 3.01294,-9.80864 2.3076,-7.70862 2.97232,-10.03545 2.66523,-9.01797 3.07127,-10.26004 3.18815,-10.36766 2.96741,-9.28889 3.54264,-10.52625 3.36635,-9.39373 3.61542,-9.40812 3.9047,-9.39049 4.79043,-10.49829 4.64409,-9.20776 5.03941,-9.03461 6.16703,-9.8824 5.92191,-8.44948 6.32785,-8.07358 7.57691,-8.57388 7.09635,-7.11582 7.39636,-6.62325 7.65343,-6.12605 8.86652,-6.32319 8.07517,-5.07719 9.28792,-5.00198 8.39437,-3.69949 8.47527,-2.89721 9.54515,-2.1885 8.38362,-0.90058 7.17171,0.0541 8.89709,1.20056 7.49759,2.10281 7.90261,3.41377 6.509,3.86342 6.74208,5.12979 5.48054,5.15476 5.62589,6.34302 4.54155,6.04732 4.14195,6.36218 4.2201,7.46514 3.3791,6.8702 3.0562,7.05044 2.7529,7.20181 2.761,8.24847 2.1745,7.44319 1.9781,7.50197 1.7873,7.5524 1.7862,8.54757 1.5411,8.5986 1.1583,7.68411 0.9637,7.71371 0.8572,8.70326 0.5507,7.75911 0.3577,7.77136 0.1661,7.7791 -0.034,8.7503 -0.2349,7.77715 -0.42,7.7682 -0.6841,8.71942 -0.8037,7.73196 -0.9792,7.70781 -1.1511,7.67856 -1.6617,9.54412 -1.3307,6.65165 -1.6624,7.5581 -2.0485,8.44401 -2.2378,8.37949 -2.1487,7.3919 -2.2885,7.33334 -2.7285,8.1735 -2.5685,7.19759 -2.0219,5.35753 -2.4353,6.19778 -3.24522,7.883 -3.00799,6.92943 -3.11285,6.85223 -3.21244,6.77343 -3.72037,7.52372 -3.40716,6.60083 -3.49066,6.51739 -3.56917,6.43312 -4.09518,7.13395 -3.71804,6.25043 -4.24939,6.92688 -3.84389,6.06527 -3.89526,5.97849 -3.94104,5.89061 -4.47574,6.52384 -4.02273,5.70739 -4.05365,5.62235 -4.58412,6.22478 -4.10347,5.44492 -4.11951,5.36395 -4.64199,5.94121 -4.13909,5.19718 -4.14293,5.12361 -4.14217,5.05174 -4.13683,4.98198 -4.63656,5.52666 -4.11555,4.84528 -4.60466,5.38224 -4.07954,4.72325 -4.55812,5.2554 -4.03305,4.6199 -4.00778,4.5769 -3.98127,4.53916 -4.4397,5.06965 -3.92119,4.4727 -3.89235,4.44885 -4.33783,4.98519 -3.83077,4.41298 -3.80278,4.40312 -3.3113,3.84453 -4.67675,5.50428 -3.72441,4.4012 -4.15949,4.96524 -7.30844,8.89768 -4.1074,5.0216 -3.64673,4.4829 -3.64244,4.50812 -4.09218,5.10927 -3.64591,4.5682 -3.65438,4.59948 -4.12211,5.21822 -3.68667,4.66876 -4.17028,5.29802 -3.73946,4.73975 -3.77164,4.7725 -4.28366,5.41341 -3.85501,4.83888 -3.90121,4.86728 -4.44637,5.51339 -4.01372,4.92028 -4.58435,5.56599 -3.62686,4.33293 -4.20525,4.97114 -4.2768,4.98026 -4.89883,5.6137 -4.99963,5.61216 -4.53431,4.97455 -5.20271,5.58568 -4.72202,4.9364 -4.8149,4.90728 -5.53062,5.48246 -4.39069,4.21107 -5.75661,5.36593 -5.22922,4.6914 -6.01049,5.1882 -5.46013,4.504 -4.87052,3.843 -12.9229,9.4899 -5.9381,3.9146 -6.82323,4.1629 -6.19312,3.435 -7.10877,3.5243 -6.44134,2.7601 -6.54819,2.3456 -6.64158,1.8484 -7.55385,1.36 -6.74115,0.409 -6.6941,-0.5106 -6.53541,-1.6235 -6.21223,-2.9321 -6.33107,-5.0307 -4.78807,-6.0331 -4.23433,-8.3131 -2.96468,-9.5462 -1.64857,-9.1919 -0.8475,-9.6129 -0.17324,-9.87378 0.0941,-3.7767 0.12596,-7.46992 -0.26747,-10.92344 -0.66208,-9.39883 -1.02869,-9.05014 -1.55252,-9.71365 -1.68708,-8.20562 -1.94213,-7.78567 -2.16706,-7.36441 -2.36634,-6.94929 -2.8775,-7.32967 -3.08136,-6.84023 -2.89417,-5.69516 -3.03447,-5.34721 -3.57889,-5.6188 -3.31903,-4.6752 -3.4505,-4.39132 -4.04313,-4.62098 -3.25363,-3.39322 -4.34311,-4.1023 -4.51429,-3.85142 -4.15376,-3.24083 -4.29054,-3.08503 -4.4274,-2.94852 -5.14844,-3.17254 -4.71517,-2.72094 -4.84742,-2.64186 -4.97673,-2.58001 -5.75387,-2.84439 -5.90635,-2.80942 -4.68428,-2.18195 -6.1572,-2.79857 -6.28544,-2.81968 -5.68088,-2.542 -5.76569,-2.58445 -6.58303,-2.96899 -5.91691,-2.7115 -5.97333,-2.78706 -6.78151,-3.23417 -6.05988,-2.9779 -6.0838,-3.08075 -6.86541,-3.59559 -6.09688,-3.32423 -6.08435,-3.44945 -6.05909,-3.58093 -6.7769,-4.19055 -5.96199,-3.87872 -6.63269,-4.53839 -5.80175,-4.19757 -5.70326,-4.35328 -6.28628,-5.08571 -5.44288,-4.69262 -5.29562,-4.85452 -5.7684,-5.65395 -4.92916,-5.19792 -4.73155,-5.35687 -4.5184,-5.51264 -4.29005,-5.66396 -4.69373,-6.4983 -4.18083,-5.84256 -4.19065,-5.90664 -4.72687,-6.72372 -4.19465,-6.04857 -4.18863,-6.1178 -4.17676,-6.18834 -4.68485,-7.04802 -4.65412,-7.14041 -4.09786,-6.42495 -4.0597,-6.49936 -4.0146,-6.57438 -3.96184,-6.6498 -4.39085,-7.57267 -4.30136,-7.66879 -3.73131,-6.89622 -3.63938,-6.97156 -3.9772,-7.93418 -3.40473,-7.13008 -3.27292,-7.20289 -3.5112,-8.1902 -2.93708,-7.35177 -2.74789,-7.41736 -2.84204,-8.41965 -2.26197,-7.54087 -1.98491,-7.58771 -1.86075,-8.58094 -1.26161,-7.64623 -0.84249,-7.64433 -0.36127,-7.61378 0.25201,-8.48234 0.91074,-7.40137 1.89801,-8.0823 2.57061,-6.85728 3.47238,-6.43269 4.41537,-5.88226 6.07851,-5.81263 6.33163,-4.34228 8.01154,-3.90341 7.77099,-2.59354 8.23627,-1.81526 8.58205,-1.10157 9.94058,-0.48118 9.01782,0.17318 9.12567,0.66627 10.33945,1.26287 9.23177,1.53066 10.39214,2.11845 9.23617,2.20384 9.21685,2.47088 9.18839,2.71253 10.28916,3.30954 9.10641,3.15847 9.06002,3.34247 10.12728,3.95917 8.94946,3.6913 8.89233,3.83906 8.83262,3.9784 9.85628,4.62793 8.69597,4.25058 9.69589,4.91892 8.54648,4.4973 6.37026,3.45479 8.41203,4.68596 7.29841,4.1898 8.25555,4.87673 9.17529,5.59762 9.05548,5.71795 7.94663,5.18594 7.84024,5.27693 7.72732,5.36629 7.60725,5.45382 8.4013,6.23287 7.32655,5.63479 7.18029,5.71725 7.88659,6.52231 6.83498,5.88558 6.65408,5.96093 7.24948,6.78619 6.2243,6.10933 6.72734,6.94107 5.72279,6.2343 5.45847,6.28156 5.79769,7.10551 4.83032,6.3477 4.50098,6.35763 4.14884,6.34975 4.2158,7.10136 3.32456,6.25776 3.23241,6.92685 2.40361,6.02906 1.94295,5.85982 1.47126,5.64426 1.08529,6.01979 0.46509,5.00718 0.0107,4.61458 -1.32722,8.15681 -1.14823,2.99407 -1.38269,2.36381 -1.71796,1.85271 -1.55685,0.91771 -1.46409,0.22194 -1.38517,-0.56734 -0.87402,-1.17891 -0.42093,-1.76343 0.19458,-2.60516 0.85398,-2.77537 1.57314,-3.13623 2.71369,-3.88491 3.31713,-3.71535 4.27411,-3.97458 15.58422,-11.95849 6.14304,-4.67002 9.22353,-7.11596 8.04698,-6.44975 8.73983,-7.43014 7.37595,-6.75822 6.94438,-6.90219 6.48181,-7.0372 6.74026,-8.06997 4.84076,-6.36972 5.76757,-8.32414 4.7196,-7.50836 4.91346,-8.57828 4.04939,-7.73278 4.25582,-8.8324 3.54644,-7.96182 3.77445,-9.09334 3.18906,-8.19706 3.06653,-8.30995 2.97101,-8.42264 3.26564,-9.61564 2.49694,-7.56811 3.20523,-9.86727 2.86124,-8.88034 3.27799,-10.11864 3.37876,-10.24061 3.12196,-9.18816 3.69818,-10.42691 3.48691,-9.31811 3.71794,-9.34475 3.98785,-9.33972 4.85922,-10.45669 4.68205,-9.18499 5.05466,-9.02549 6.15659,-9.88864 5.88833,-8.46962 6.27229,-8.10709 7.48998,-8.62682 6.99957,-7.17547 7.28361,-6.69371 7.52714,-6.20622 8.71147,-6.42343 7.92681,-5.17504 9.10824,-5.12304 8.22273,-3.8178 8.29219,-3.02635 9.32593,-2.34722 8.17811,-1.05354 6.98499,-0.0884 8.64997,1.00643 7.27375,1.92145 7.64889,3.20164 6.28379,3.66903 6.49084,4.90588 5.26009,4.9519 5.38181,6.11114 4.3284,5.83831 3.93252,6.15061 3.98906,7.22418 3.17766,6.65341 2.85839,6.83119 2.55877,6.98005 2.54677,7.99594 1.9876,7.21582 1.7943,7.27144 1.6065,7.31869 1.5865,8.28082 1.3453,8.32784 0.9877,7.44008 0.7963,7.46651 0.6728,8.42138 0.3902,7.5052 0.2006,7.51432 0.012,7.51887 -0.2028,8.45374 -0.3812,7.51013 -0.5627,7.49796 -0.8404,8.4115 -0.9387,7.45477 -1.1105,7.4273 -1.2786,7.39467 -1.8158,9.18451 -1.4349,6.3967 -1.7778,7.26345 -2.1735,8.10831 -2.35763,8.03921 -2.2507,7.08554 -2.38608,7.02326 -2.83316,7.82018 -2.65666,6.87948 -2.08494,5.11638 -2.50554,5.91368 -3.33004,7.51328 -3.07808,6.59654 -3.1778,6.51532 -3.27209,6.43245 -3.78098,7.13519 -3.45503,6.25111 -3.53273,6.16355 -3.60525,6.07512 -4.12836,6.72632 -3.74073,5.88372 -4.267,6.50953 -3.85227,5.69 -3.89659,5.59925 -3.93507,5.50755 -4.46004,6.08838 -4.00052,5.31642 -4.02344,5.22786 -4.5403,5.777 -4.0555,5.0435 -4.06285,4.95954 -4.56754,5.48293 -4.06319,4.78725 -4.05763,4.71134 -4.04728,4.6375 -4.03218,4.56613 -4.50697,5.05732 -3.98959,4.42701 -4.4507,4.91105 -3.93166,4.30432 -4.37924,4.78445 -3.8628,4.20206 -3.82696,4.16033 -3.78982,4.12423 -4.21165,4.60547 -3.70728,4.06298 -3.66796,4.04228 -4.07304,4.53226 -3.58454,4.01483 -3.54653,4.00969 -3.07902,3.50451 -4.33221,5.02611 -3.43832,4.02556 -3.82693,4.55061 -6.69072,8.18321 -3.74592,4.6334 -3.31753,4.14665 -3.30623,4.18048 -3.70619,4.7514 -3.29636,4.25989 -3.29924,4.30063 -3.7165,4.89361 -3.32123,4.39068 -3.75426,4.99713 -3.36582,4.48305 -3.39487,4.52598 -3.85656,5.14826 -3.47303,4.6141 -3.51746,4.65269 -4.01302,5.28414 -3.62754,4.72723 -4.1492,5.36075 -3.28819,4.18192 -3.81831,4.8077 -3.89025,4.82642 -4.46477,5.45193 -4.56673,5.46206 -4.15077,4.85076 -4.77284,5.45698 -4.34152,4.83116 -4.43607,4.81048 -5.10652,5.38337 -4.06243,4.14103 -5.33664,5.28466 -4.85789,4.62732 -5.59489,5.12486 -5.09259,4.4555 -4.55025,3.80623 -12.10434,9.4198 -5.57612,3.8944 -6.41688,4.1481 -5.8323,3.4287 -6.70281,3.5251 -6.07997,2.7676 -6.1859,2.3598 -6.27795,1.8692 -7.14284,1.3916 -6.37417,0.4444 -6.32642,-0.4683 -6.16918,-1.5745 -5.8516,-2.8769 -5.94056,-4.9635 -4.46387,-5.9712 -3.90516,-8.2445 -2.67804,-9.4818 -1.42888,-9.13946 -0.65763,-9.56551 -0.009,-9.83131 0.14951,-3.76199 0.2433,-7.43822 -0.0564,-10.86448 -0.43977,-9.33402 -0.77519,-8.97281 -1.23263,-9.61079 -1.37472,-8.09941 -1.60633,-7.66502 -1.81076,-7.22891 -1.9925,-6.79868 -2.43949,-7.1419 -2.62867,-6.63299 -2.48242,-5.49461 -2.61647,-5.13148 -3.10399,-5.35828 -2.89513,-4.42822 -3.02695,-4.13032 -3.56932,-4.31134 -2.8885,-3.14122 -3.87978,-3.76482 -4.05959,-3.49982 -3.75816,-2.9174 -3.90407,-2.75225 -4.05093,-2.6073 -4.73778,-2.77968 -4.36221,-2.36472 -4.50631,-2.27995 -4.6478,-2.21327 -5.39869,-2.42701 -5.56707,-2.388 -4.43144,-1.85205 -5.84625,-2.3724 -5.99026,-2.39204 -5.43154,-2.16124 -5.52839,-2.20358 -6.33016,-2.54088 -5.70433,-2.33166 -5.77191,-2.40818 -6.56785,-2.80937 -5.88109,-2.60175 -5.91514,-2.7061 -6.68735,-3.17602 -5.94862,-2.953 -5.94519,-3.07984 -5.92871,-3.21291 -6.64036,-3.77833 -5.84934,-3.51382 -6.51543,-4.12944 -5.70566,-3.83528 -5.61463,-3.99201 -6.19524,-4.68029 -5.36948,-4.333 -5.22915,-4.49543 -5.70176,-5.25043 -4.87705,-4.8395 -4.68605,-4.99857 -4.47946,-5.15437 -4.25763,-5.30564 -4.66512,-6.09728 -4.16237,-5.49018 -4.17851,-5.55823 -4.72053,-6.33665 -4.19524,-5.70894 -4.19489,-5.78236 -4.18845,-5.85716 -4.70427,-6.68051 -4.6799,-6.77828 -4.1259,-6.10753 -4.09239,-6.18611 -4.05175,-6.26522 -4.00332,-6.34465 -4.4425,-7.23404 -4.35811,-7.33494 -3.78592,-6.60331 -3.69779,-6.68211 -4.04738,-7.61246 -3.47099,-6.84737 -3.34281,-6.92304 -3.59412,-7.87846 -3.01462,-7.07713 -2.82907,-7.14476 -2.93779,-8.11502 -2.3511,-7.27153 -2.07798,-7.31937 -1.9703,-8.27977 -1.36354,-7.37875 -0.94891,-7.37665 -0.47243,-7.34558 0.12105,-8.1797 0.78889,-7.13146 1.75478,-7.77793 2.43805,-6.58689 3.33549,-6.16376 4.27509,-5.61668 5.91841,-5.52078 6.18901,-4.09162 7.8527,-3.63373 7.63246,-2.36597 8.10095,-1.59933 8.45013,-0.8968 9.79616,-0.26311 8.89266,0.3573 9.00311,0.84241 10.20408,1.45281 9.1132,1.69329 10.26013,2.29554 9.11958,2.3569 9.10058,2.62057 9.07201,2.85945 10.15769,3.4722 8.98866,3.30123 8.94108,3.484 9.99163,4.1174 8.82689,3.83146 8.76751,3.97911 8.70523,4.11865 9.70948,4.78631 8.56198,4.39218 9.54071,5.07952 8.40419,4.64145 6.26061,3.56392 8.26155,4.83301 7.16241,4.32007 8.09475,5.02763 8.98696,5.77021 8.85848,5.89382 7.7636,5.34522 7.64906,5.4392 7.52733,5.53169 7.39769,5.62252 8.1531,6.42678 7.09391,5.81093 6.93532,5.89705 7.59497,6.72902 6.56026,6.07326 6.36349,6.1523 6.9019,7.00573 5.89539,6.30806 6.3328,7.16827 5.34842,6.43903 5.05994,6.48831 5.31799,7.33959 4.3738,6.55602 4.01385,6.56492 3.62886,6.55449 3.58872,7.32635 2.72731,6.45048 2.51283,7.13201 1.71948,6.1975 1.21529,6.01128 0.6989,5.7745 0.1624,6.13501 -0.40283,5.07606 -0.90049,4.64615 -3.39285,8.07441 -2.17061,2.87358 -2.42779,2.18487 -2.91002,1.5778 -2.61998,0.60629 -2.51941,-0.15212 -2.54925,-1.05985 -1.87645,-1.67533 -1.38245,-2.30812 -0.82743,-3.26525 0.007,-3.39337 0.78905,-3.77233 1.91279,-4.60714 2.68188,-4.34777 3.71718,-4.57882 14.78769,-12.9178 6.10547,-4.71842 9.21803,-7.12306 8.08961,-6.39481 8.83605,-7.30761 7.49931,-6.60392 7.09825,-6.71404 6.66114,-6.82365 6.9665,-7.80896 5.03083,-6.15728 6.0256,-8.04522 4.95841,-7.25944 5.18913,-8.3013 4.29806,-7.49199 4.53707,-8.56983 3.79585,-7.73724 4.05238,-8.8518 3.4323,-7.99289 3.30486,-8.11616 3.20328,-8.23953 3.51832,-9.42264 2.68628,-7.4276 3.43816,-9.6991 3.05725,-8.74271 3.4847,-9.97723 3.56936,-10.11356 3.27651,-9.08744 3.85373,-10.32756 3.60747,-9.24249 3.82046,-9.28138 4.07099,-9.28896 4.92803,-10.41509 4.72,-9.16221 5.0699,-9.01637 6.14615,-9.89488 5.85476,-8.48975 6.21674,-8.14061 7.40305,-8.67975 6.90278,-7.23513 7.17087,-6.76417 7.40084,-6.28638 8.55643,-6.52368 7.77845,-5.27288 8.92856,-5.2441 8.05108,-3.93611 8.1091,-3.15549 9.10673,-2.50594 7.97259,-1.20651 6.79827,-0.23101 8.40285,0.81232 7.04989,1.74008 7.39519,2.98951 6.0586,3.47464 6.2396,4.68197 5.03963,4.74904 5.13773,5.87927 4.11526,5.62928 3.72312,5.93905 3.75798,6.98321 2.97621,6.43663 2.66062,6.61194 2.36459,6.75829 2.33252,7.74341 1.80078,6.98845 1.61045,7.04092 1.42575,7.08496 1.38675,8.01407 1.14954,8.05709 0.81699,7.19605 0.62888,7.2193 0.48835,8.13951 0.22986,7.2513 0.0435,7.25727 -0.14121,7.25864 -0.37154,8.15718 -0.52746,7.24312 -0.70536,7.22772 -0.99671,8.10357 -1.07368,7.17759 -1.24189,7.14678 -1.40615,7.11079 -1.96987,8.82489 -1.53911,6.14175 -1.89322,6.9688 -2.29845,7.7726 -2.4774,7.69893 -2.35267,6.77919 -2.48375,6.71318 -2.93776,7.46686 -2.74481,6.56136 -2.14803,4.87525 -2.57575,5.62957 -3.41486,7.14357 -3.14817,6.26365 -3.24275,6.17841 -3.33175,6.09147 -3.84157,6.74664 -3.50292,5.9014 -3.5748,5.80971 -3.64131,5.71713 -4.16154,6.31869 -3.76342,5.51701 -4.28462,6.09217 -3.86065,5.31473 -3.89791,5.22001 -3.9291,5.12449 -4.44433,5.65291 -3.97831,4.92546 -3.99324,4.83336 -4.49648,5.32922 -4.00754,4.64208 -4.00617,4.55513 -4.4931,5.02466 -3.98728,4.37731 -3.97234,4.29908 -3.95239,4.22326 -3.92754,4.15027 -4.37738,4.58799 -3.86362,4.00873 -4.29674,4.43988 -3.78379,3.88538 -4.20034,4.3135 -3.69256,3.78422 -3.64614,3.74375 -3.59837,3.70932 -3.98359,4.14129 -3.49338,3.65324 -3.44358,3.63572 -3.80823,4.07933 -3.33832,3.61668 -3.29029,3.61627 -2.84672,3.16448 -3.98769,4.54794 -3.15222,3.64993 -3.49437,4.13598 -6.073,7.46873 -3.38443,4.24519 -2.98834,3.8104 -2.97003,3.85285 -3.32018,4.39353 -2.94682,3.95159 -2.9441,4.00178 -3.31088,4.56898 -2.95579,4.11261 -3.33824,4.69625 -2.99219,4.22634 -3.01809,4.27945 -3.42947,4.88313 -3.09105,4.3893 -3.13371,4.43812 -3.57968,5.05488 -3.24134,4.53419 -3.71405,5.1555 -2.94953,4.03092 -3.43138,4.64425 -3.50368,4.67258 -4.03072,5.29015 -4.13384,5.31198 -3.76721,4.72696 -4.34297,5.32828 -3.96104,4.72593 -4.05724,4.71368 -4.6824,5.28428 -3.73417,4.07097 -4.91668,5.2034 -4.48656,4.56319 -5.1793,5.06157 -4.72504,4.40696 -4.22999,3.76963 -11.28576,9.3497 -5.21416,3.87417 -6.01052,4.13322 -5.47148,3.42241 -6.29686,3.5258 -5.71859,2.7752 -5.82361,2.374 -5.91431,1.89 -6.73184,1.4232 -6.00719,0.4798 -5.95875,-0.426 -5.80295,-1.5254 -5.49096,-2.8219 -5.55006,-4.8962 -4.13967,-5.9093 -3.57597,-8.17592 -2.39141,-9.41738 -1.2092,-9.08708 -0.46776,-9.51812 0.15447,-9.78882 0.20496,-3.74727 0.36063,-7.40651 0.15461,-10.80553 -0.21748,-9.26922 -0.52169,-8.89548 -0.91274,-9.50792 -1.06234,-7.99319 -1.27054,-7.54437 -1.45447,-7.09343 -1.61864,-6.64806 -2.00149,-6.95414 -2.17597,-6.42573 -2.07068,-5.29407 -2.19847,-4.91575 -2.62909,-5.09776 -2.47122,-4.18124 -2.60341,-3.86932 -3.0955,-4.00169 -2.52339,-2.88923 -3.41643,-3.42734 -3.60489,-3.14822 -3.36256,-2.59397 -3.5176,-2.41948 -3.67447,-2.26607 -4.32711,-2.38681 -4.00926,-2.0085 -4.1652,-1.91806 -4.31888,-1.84651 -5.0435,-2.00964 -5.2278,-1.96658 -4.17859,-1.52214 -5.53531,-1.94624 -5.69507,-1.96439 -5.18219,-1.78048 -5.2911,-1.82272 -6.07728,-2.11277 -5.49175,-1.95182 -5.57049,-2.02931 -6.3542,-2.38455 -5.7023,-2.2256 -5.74648,-2.33146 -6.50928,-2.75644 -5.80036,-2.58177 -5.80603,-2.71024 -5.79834,-2.84488 -6.50383,-3.36612 -5.73668,-3.14892 -6.39816,-3.72048 -5.60958,-3.473 -5.526,-3.63074 -6.1042,-4.27488 -5.29608,-3.97337 -5.16269,-4.13634 -5.63512,-4.84691 -4.82494,-4.48108 -4.64055,-4.64028 -4.44052,-4.79609 -4.22519,-4.94732 -4.63652,-5.69625 -4.1439,-5.13781 -4.16639,-5.20983 -4.71417,-5.94958 -4.19584,-5.36929 -4.20114,-5.44693 -4.20016,-5.52597 -4.72368,-6.31301 -4.70569,-6.41615 -4.15394,-5.79011 -4.12506,-5.87286 -4.08892,-5.95606 -4.04479,-6.03949 -4.49416,-6.89541 -4.41486,-7.00109 -3.84052,-6.3104 -3.7562,-6.39267 -4.11755,-7.29074 -3.53726,-6.56467 -3.4127,-6.64317 -3.67705,-7.56672 -3.09215,-6.8025 -2.91025,-6.87216 -3.03354,-7.81039 -2.44024,-7.00219 -2.17103,-7.05102 -2.07987,-7.9786 -1.46546,-7.11127 -1.05534,-7.10899 -0.58358,-7.07738 -0.01,-7.87705 0.66704,-6.86154 1.61154,-7.47358 2.30551,-6.31649 3.19858,-5.89483 4.13483,-5.35111 5.7583,-5.22892 6.0464,-3.84096 7.69384,-3.36405 7.49394,-2.1384 7.96562,-1.3834 8.31823,-0.69204 9.65174,-0.045 8.76749,0.54142 8.88054,1.01854 10.06872,1.64276 8.99462,1.85592 10.12813,2.47262 9.003,2.50997 8.98429,2.77026 8.95565,3.00637 10.02621,3.63485 8.87091,3.44401 8.82214,3.62553 9.85598,4.27562 8.70431,3.97162 8.6427,4.11915 8.57785,4.2589 9.56267,4.94469 8.42798,4.5338 9.38555,5.2401 8.2619,4.78562 6.15095,3.67305 8.11107,4.98005 7.02641,4.45034 7.93396,5.17854 8.79861,5.9428 8.66149,6.06968 7.58056,5.5045 7.45789,5.60146 7.32733,5.6971 7.18815,5.79122 7.9049,6.62069 6.86126,5.98707 6.69035,6.07684 7.30334,6.93573 6.28555,6.26095 6.0729,6.34366 6.55433,7.22528 5.56647,6.50678 5.93826,7.39547 4.97406,6.64378 4.6614,6.69506 4.83828,7.57367 3.91729,6.76434 3.52671,6.7722 3.10888,6.75924 2.96166,7.55132 2.13004,6.64321 1.79326,7.33716 1.03535,6.36595 0.48764,6.16274 -0.0735,5.90474 -0.76049,6.25024 -1.27074,5.14494 -1.81166,4.6777 -5.4585,7.99202 -3.19298,2.75309 -3.47289,2.00594 -4.10208,1.30288 -3.6831,0.29488 -3.57473,-0.5262 -3.71334,-1.55234 -2.87888,-2.17176 -2.34397,-2.85282 -1.84943,-3.92533 -0.84082,-4.01136 0.005,-4.40844 1.11187,-5.32937 2.04664,-4.98019 3.16025,-5.18306 13.99116,-13.8771 6.06789,-4.76682 9.21253,-7.13016 8.13225,-6.33989 8.93226,-7.18507 7.62269,-6.44962 7.25211,-6.52589 6.84047,-6.6101 7.19274,-7.54794 5.2209,-5.94485 6.28364,-7.76631 5.19721,-7.01051 5.4648,-8.02433 4.54673,-7.25118 4.81832,-8.30726 4.04527,-7.51267 4.33031,-8.61026 3.67553,-7.78872 3.54319,-7.92237 3.43555,-8.05642 3.771,-9.22964 2.87563,-7.28708 3.67107,-9.53094 3.25327,-8.60507 3.69141,-9.83584 3.75997,-9.9865 3.43106,-8.98671 4.00927,-10.22822 3.72803,-9.16687 3.92297,-9.21801 4.15415,-9.23819 4.99683,-10.3735 4.75794,-9.13942 5.08516,-9.00726 6.13571,-9.90112 5.82118,-8.50989 6.16118,-8.17412 7.31612,-8.73269 6.80601,-7.29478 7.05812,-6.83462 7.27455,-6.36656 8.40138,-6.62392 7.63008,-5.37073 8.74888,-5.36515 7.87943,-4.05442 7.92603,-3.28463 8.88751,-2.66467 7.76708,-1.35947 6.61155,-0.37358 8.15574,0.61819 6.82603,1.55872 7.14148,2.77738 5.8334,3.28025 5.98837,4.45806 4.81916,4.54618 4.89365,5.6474 3.90212,5.42026 3.51372,5.72749 3.52689,6.74224 2.77477,6.21984 2.46285,6.39268 2.17041,6.53654 2.11829,7.49089 1.61391,6.76107 1.42663,6.81039 1.24495,6.85125 1.18701,7.74732 0.95378,7.78633 0.64636,6.95201 0.46146,6.97211 0.3039,7.85763 0.0694,6.99739 -0.11355,7.00022 -0.29486,6.99841 -0.54028,7.86062 -0.67372,6.97611 -0.84808,6.95748 -1.15298,7.79564 -1.2087,6.90042 -1.3732,6.86626 -1.53371,6.82691 -2.12393,8.46527 -1.64333,5.88679 -2.00861,6.67417 -2.42344,7.43688 -2.59718,7.35866 -2.45465,6.47282 -2.58142,6.40311 -3.04234,7.11354 -2.83297,6.24325 -2.21111,4.6341 -2.64598,5.34546 -3.49967,6.77387 -3.21826,5.93076 -3.30769,5.8415 -3.39141,5.75049 -3.90218,6.35809 -3.5508,5.55169 -3.61686,5.45587 -3.67739,5.35914 -4.19471,5.91106 -3.78612,5.15029 -4.30222,5.67481 -3.86904,4.93948 -3.89923,4.84076 -3.92313,4.74143 -4.42862,5.21745 -3.95611,4.53449 -3.96303,4.43887 -4.45265,4.88144 -3.95959,4.24065 -3.9495,4.15073 -4.41864,4.56637 -3.91139,3.96738 -3.88703,3.88682 -3.85751,3.80902 -3.8229,3.73441 -4.24778,4.11866 -3.73766,3.59045 -4.14278,3.9687 -3.63591,3.46644 -4.02145,3.84256 -3.52232,3.36638 -3.46532,3.32718 -3.40692,3.2944 -3.75554,3.6771 -3.27947,3.24352 -3.21919,3.22916 -3.54344,3.62639 -3.09209,3.21853 -3.03404,3.22284 -2.61443,2.82446 -3.64316,4.06977 -2.86613,3.27429 -3.16181,3.72135 -5.45528,6.75426 -3.02295,3.85699 -2.65913,3.47415 -2.63384,3.52522 -2.93418,4.03565 -2.59727,3.64329 -2.58895,3.70293 -2.90527,4.24436 -2.59035,3.83452 -2.92222,4.39537 -2.61856,3.96964 -2.64131,4.03292 -3.00238,4.618 -2.70907,4.1645 -2.74996,4.22354 -3.14633,4.82563 -2.85516,4.34114 -3.27889,4.95025 -2.61087,3.87992 -3.04444,4.48082 -3.11712,4.51874 -3.59667,5.12836 -3.70095,5.1619 -3.38366,4.60316 -3.9131,5.19957 -3.58054,4.6207 -3.67842,4.61688 -4.25829,5.1852 -3.40591,4.00092 -4.49671,5.12213 -4.11523,4.49905 -4.7637,4.9983 -4.3575,4.3584 -3.90972,3.73297 -10.4672,9.27962 -4.85218,3.85396 -5.60417,4.11835 -5.11065,3.41613 -5.89092,3.52657 -5.35721,2.78277 -5.46131,2.38818 -5.55069,1.91084 -6.32083,1.45477 -5.64021,0.51522 -5.59107,-0.38362 -5.43672,-1.47636 -5.13033,-2.76688 -5.15956,-4.82894 -3.81546,-5.84742 -3.2468,-8.10738 -2.10477,-9.35295 -0.98951,-9.0347 -0.2779,-9.47072 0.31834,-9.74632 0.2604,-3.73256 0.47797,-7.37481 0.36565,-10.74657 0.005,-9.20441 -0.26819,-8.81815 -0.59285,-9.40506 -0.74998,-7.88698 -0.93473,-7.42372 -1.09818,-6.95794 -1.24479,-6.49744 -1.56349,-6.76638 -1.72327,-6.21847 -1.65894,-5.09353 -1.78047,-4.70002 -2.15419,-4.83725 -2.04732,-3.93425 -2.17986,-3.60833 -2.62169,-3.69203 -2.15826,-2.63724 -2.9531,-3.08986 -3.15018,-2.79662 -2.96696,-2.27054 -3.13114,-2.0867 -3.298,-1.92485 -3.91645,-1.99395 -3.65629,-1.65228 -3.8241,-1.55616 -3.98995,-1.47976 -4.68832,-1.59226 -4.88852,-1.54517 -3.92575,-1.19223 -5.22437,-1.52007 -5.39988,-1.53675 -4.93285,-1.39972 -5.0538,-1.44185 -5.8244,-1.68465 -5.27917,-1.57199 -5.36908,-1.65043 -6.14053,-1.95974 -5.52352,-1.84946 -5.57781,-1.95681 -6.33122,-2.33687 -5.65211,-2.21054 -5.66686,-2.34063 -5.66796,-2.47685 -6.3673,-2.95391 -5.62404,-2.78402 -6.28089,-3.31153 -5.51349,-3.11071 -5.43736,-3.26947 -6.01317,-3.86946 -5.22268,-3.61376 -5.09623,-3.77724 -5.56848,-4.4434 -4.77282,-4.12265 -4.59506,-4.28198 -4.40157,-4.43782 -4.19277,-4.589 -4.6079,-5.29522 -4.12545,-4.78544 -4.15426,-4.86143 -4.70781,-5.5625 -4.19644,-5.02965 -4.20739,-5.1115 -4.21186,-5.19478 -4.7431,-5.94551 -4.73147,-6.05402 -4.18198,-5.4727 -4.15775,-5.55959 -4.12607,-5.6469 -4.08627,-5.73435 -4.54581,-6.55678 -4.47161,-6.66724 -3.89513,-6.01749 -3.81462,-6.10322 -4.18771,-6.96903 -3.60353,-6.28195 -3.48258,-6.36331 -3.75998,-7.25498 -3.1697,-6.52787 -2.99143,-6.59956 -3.12928,-7.50575 -2.52938,-6.73286 -2.26408,-6.78268 -2.18943,-7.67743 -1.56739,-6.84379 -1.16177,-6.84131 -0.69473,-6.80918 -0.14087,-7.57441 0.54519,-6.59163 1.46831,-7.16922 2.17295,-6.04608 3.06168,-5.62591 3.99456,-5.08553 5.5982,-4.93706 5.90378,-3.59031 7.535,-3.09437 7.35541,-1.91083 7.83029,-1.16747 8.18632,-0.48728 9.50732,0.17305 8.64233,0.72554 8.75797,1.19468 9.93336,1.83271 8.87605,2.01853 9.99612,2.64971 8.88641,2.66304 8.86801,2.91995 8.83928,3.15329 9.89474,3.79751 8.75316,3.58678 8.7032,3.76705 9.72033,4.43385 8.58173,4.11178 8.51789,4.2592 8.45046,4.39915 9.41587,5.10306 8.29399,4.67541 9.23037,5.4007 8.11962,4.92977 6.0413,3.78218 7.96058,5.1271 6.89042,4.58062 7.77316,5.32943 8.61026,6.1154 8.46451,6.24553 7.39752,5.66379 7.26671,5.76373 7.12734,5.8625 6.97859,5.95992 7.65671,6.81459 6.6286,6.16323 6.44539,6.25663 7.01172,7.14244 6.01083,6.44863 5.78231,6.53502 6.20676,7.44483 5.23754,6.70551 5.54373,7.62267 4.59969,6.84851 4.26286,6.90181 4.35859,7.80776 3.46077,6.97265 3.03957,6.97949 2.58891,6.96398 2.33459,7.77631 1.53278,6.83593 1.07368,7.54232 0.35123,6.53439 -0.24003,6.3142 -0.84583,6.03497 -1.68338,6.36547 -2.13866,5.21382 -2.72282,4.70927 -7.52415,7.90962 -4.21536,2.6326 -4.51798,1.82701 -5.29414,1.02796 -4.74622,-0.0165 -4.63005,-0.90027 -4.87742,-2.04484 -3.88133,-2.66819 -3.30548,-3.39751 -2.87144,-4.58542 -1.68821,-4.62936 -0.7791,-5.04454 0.31096,-6.0516 1.41139,-5.6126 2.60332,-5.78731 13.19464,-14.83641 6.0303,-4.81522 9.20704,-7.13726 8.17489,-6.28495 9.02846,-7.06254 7.74606,-6.29532 7.40597,-6.33775 7.01981,-6.39654 7.41898,-7.28692 5.41096,-5.73243 6.54168,-7.48738 5.43602,-6.76159 5.74047,-7.74736 4.7954,-7.01037 5.09957,-8.0447 4.29468,-7.28809 4.60825,-8.36872 3.91876,-7.58456 3.78152,-7.72857 3.66781,-7.87331 4.02369,-9.03664 3.06497,-7.14657 3.904,-9.36276 3.44928,-8.46744 3.89812,-9.69444 3.95057,-9.85945 3.58561,-8.88598 4.16482,-10.12888 3.84859,-9.09125 4.02549,-9.15465 4.23729,-9.18741 5.06564,-10.33191 4.79589,-9.11664 5.1004,-8.99813 6.12527,-9.90737 5.78762,-8.53002 6.10562,-8.20764 7.22919,-8.78563 6.70922,-7.35443 6.94537,-6.90508 7.14826,-6.44672 8.24634,-6.72417 7.48171,-5.46858 8.5692,-5.4862 7.70779,-4.17274 7.74295,-3.41376 8.66829,-2.82339 7.56157,-1.51244 6.42484,-0.51615 7.90861,0.42407 6.60218,1.37736 6.88778,2.56524 5.60819,3.08586 5.73713,4.23415 4.5987,4.34332 4.64957,5.41552 3.68898,5.21125 3.30432,5.51592 3.29581,6.50127 2.57333,6.00305 2.26507,6.17344 1.97624,6.31478 1.90404,7.23836 1.42706,6.5337 1.2428,6.57987 1.06415,6.61753 0.98728,7.48056 0.75801,7.51558 0.47572,6.70798 0.29404,6.72491 0.11945,7.57576 -0.091,6.74348 -0.2706,6.74317 -0.44851,6.73818 -0.70901,7.56406 -0.81998,6.7091 -0.9908,6.68723 -1.30926,7.48772 -1.34371,6.62324 -1.50452,6.58574 -1.66127,6.54303 -2.27798,8.10565 -1.74756,5.63184 -2.124,6.37952 -2.54843,7.10117 -2.71695,7.01838 -2.55663,6.16647 -2.67909,6.09303 -3.14694,6.76021 -2.92112,5.92514 -2.27419,4.39296 -2.7162,5.06136 -3.58449,6.40415 -3.28835,5.59787 -3.37264,5.50459 -3.45107,5.40951 -3.96277,5.96955 -3.59868,5.20198 -3.65893,5.10203 -3.71347,5.00115 -4.22789,5.50342 -3.8088,4.78359 -4.31984,5.25745 -3.87742,4.56421 -3.90055,4.46153 -3.91716,4.35836 -4.41292,4.78198 -3.9339,4.14353 -3.93283,4.04437 -4.40882,4.43366 -3.91162,3.83924 -3.89283,3.74632 -4.3442,4.10809 -3.83548,3.55744 -3.80174,3.47456 -3.76263,3.39477 -3.71825,3.31857 -4.11818,3.64932 -3.61171,3.17218 -3.98881,3.49752 -3.48804,3.0475 -3.84255,3.3716 -3.35208,2.94855 -3.2845,2.9106 -3.21547,2.87949 -3.52748,3.21291 -3.06557,2.83379 -2.9948,2.8226 -3.27864,3.17346 -2.84587,2.82038 -2.7778,2.82942 -2.38214,2.48443 -3.29863,3.5916 -2.58003,2.89865 -2.82925,3.30672 -4.83756,6.03979 -2.66147,3.46879 -2.32993,3.13789 -2.29764,3.19759 -2.54818,3.67778 -2.24772,3.33499 -2.23381,3.40408 -2.49966,3.91974 -2.2249,3.55644 -2.50621,4.09449 -2.24493,3.71293 -2.26453,3.78639 -2.57529,4.35287 -2.32709,3.9397 -2.3662,4.00896 -2.71299,4.59638 -2.46897,4.1481 -2.84374,4.745 -2.2722,3.72891 -2.6575,4.31738 -2.73056,4.3649 -3.16262,4.96659 -3.26806,5.01181 -3.00011,4.47936 -3.48323,5.07087 -3.20005,4.51547 -3.29959,4.52007 -3.83417,5.08611 -3.07765,3.93088 -4.07675,5.04086 -3.7439,4.43491 -4.3481,4.93502 -3.98995,4.30986 -3.58947,3.6963 -9.64863,9.20955 -4.49021,3.83373 -5.19781,4.10349 -4.74983,3.40986 -5.48496,3.5273 -4.99584,2.79035 -5.09902,2.40234 -5.18705,1.93168 -5.90983,1.48634 -5.27323,0.55063 -5.22339,-0.34128 -5.0705,-1.42731 -4.76969,-2.71182 -4.76906,-4.76169 -3.49125,-5.78551 -2.91763,-8.03882 -1.81813,-9.28853 -0.76983,-8.9823 -0.088,-9.42333 0.4822,-9.70383 0.31585,-3.71784 0.5953,-7.34311 0.5767,-10.68762 0.22711,-9.13959 -0.0147,-8.74082 -0.27295,-9.3022 -0.43762,-7.78077 -0.59893,-7.30306 -0.74188,-6.82246 -0.87094,-6.34682 -1.12548,-6.57862 -1.27058,-6.01122 -1.24719,-4.89298 -1.36248,-4.48429 -1.6793,-4.57673 -1.6234,-3.68726 -1.75632,-3.34734 -2.14788,-3.38238 -1.79314,-2.38525 -2.48976,-2.75238 -2.69547,-2.44502 -2.57136,-1.94711 -2.74467,-1.75393 -2.92154,-1.58362 -3.50578,-1.60108 -3.30334,-1.29607 -3.48299,-1.19426 -3.66102,-1.11301 -4.33314,-1.17487 -4.54925,-1.12376 -3.67291,-0.86233 -4.91341,-1.0939 -5.1047,-1.1091 -4.68351,-1.01896 -4.8165,-1.06099 -5.57152,-1.25654 -5.06659,-1.19216 -5.16766,-1.27154 -5.92688,-1.53494 -5.34473,-1.4733 -5.40915,-1.58218 -6.15316,-1.91729 -5.50384,-1.83931 -5.5277,-1.97101 -5.53759,-2.10883 -6.23077,-2.54171 -5.51138,-2.41911 -6.16362,-2.90257 -5.41741,-2.74843 -5.34873,-2.9082 -5.92213,-3.46405 -5.14929,-3.25413 -5.02976,-3.41816 -5.50184,-4.03987 -4.7207,-3.76423 -4.54956,-3.92368 -4.36264,-4.07955 -4.16033,-4.23067 -4.5793,-4.8942 -4.10699,-4.43307 -4.14212,-4.51303 -4.70147,-5.17543 -4.19703,-4.69 -4.21364,-4.77608 -4.22356,-4.86358 -4.76252,-5.57801 -4.75725,-5.69189 -4.21002,-5.15528 -4.19043,-5.24634 -4.16323,-5.33774 -4.12775,-5.4292 -4.59746,-6.21815 -4.52837,-6.33338 -3.94973,-5.72458 -3.87303,-5.81378 -4.25789,-6.64731 -3.66979,-5.99924 -3.55247,-6.08346 -3.8429,-6.94323 -3.24724,-6.25324 -3.07261,-6.32695 -3.22503,-7.20113 -2.61851,-6.46352 -2.35714,-6.51433 -2.29899,-7.37627 -1.66932,-6.5763 -1.2682,-6.57364 -0.80588,-6.54098 -0.27183,-7.27177 0.42334,-6.32172 1.32508,-6.86485 2.04039,-5.77569 2.92478,-5.35698 3.8543,-4.81995 5.43809,-4.64521 5.76117,-3.33965 7.37614,-2.82469 7.21689,-1.68326 7.69496,-0.95154 8.05441,-0.28252 9.36291,0.39113 8.51717,0.90966 8.63539,1.37082 9.798,2.02265 8.75747,2.18116 9.86412,2.8268 8.76983,2.81611 8.75173,3.06964 8.72291,3.3002 9.76326,3.96016 8.63541,3.72956 8.58426,3.90858 9.58468,4.59207 8.45915,4.25194 8.39308,4.39925 8.32308,4.53939 9.26906,5.26144 8.15999,4.81703 9.0752,5.56129 7.97733,5.07393 5.93165,3.8913 7.8101,5.27415 6.75442,4.71089 7.61237,5.48033 8.42191,6.28799 8.26752,6.4214 7.21448,5.82306 7.07554,5.926 6.92734,6.02791 6.76904,6.12862 7.40851,7.0085 6.39596,6.33937 6.20042,6.43643 6.72009,7.34914 5.73613,6.63632 5.49171,6.72638 5.85918,7.66437 4.90863,6.90424 5.14919,7.84988 4.22533,7.05324 3.86432,7.10857 3.87888,8.04184 3.00426,7.18097 2.55244,7.18678 2.06892,7.16871 1.70753,8.0013 0.93552,7.02865 0.3541,7.74747 -0.3329,6.70283 -0.96769,6.46567 -1.61819,6.16521 -2.60627,6.4807 -3.00657,5.28269 -3.634,4.74084 -9.58978,7.82722 -5.23774,2.5121 -5.56308,1.64809 -6.4862,0.75304 -5.80934,-0.32794 -5.68537,-1.27434 -6.04151,-2.53734 -4.88376,-3.16463 -4.26701,-3.94219 -3.89344,-5.24551 -2.53561,-5.24735 -1.56318,-5.68065 -0.48995,-6.77384 0.77615,-6.24501 2.04639,-6.39155 12.39811,-15.79572 5.99273,-4.86361 9.20154,-7.14437 8.21752,-6.23002 9.12468,-6.94 7.86943,-6.14102 7.55983,-6.1496 7.19915,-6.183 7.64521,-7.02589 5.60103,-5.52 6.79972,-7.20846 5.67482,-6.51267 6.01614,-7.47038 5.04407,-6.76957 5.38082,-7.78213 4.54409,-7.06352 4.88619,-8.12718 4.16199,-7.38039 4.01985,-7.53478 3.90008,-7.6902 4.27638,-8.84364 3.2543,-7.00606 4.13693,-9.19459 3.64529,-8.3298 4.10483,-9.55305 4.14118,-9.73239 3.74015,-8.78526 4.32038,-10.02952 3.96914,-9.01564 4.12801,-9.09128 4.32044,-9.13664 5.13443,-10.29031 4.83385,-9.09387 5.11565,-8.98901 6.11482,-9.91361 5.75405,-8.55016 6.05006,-8.24115 7.14226,-8.83856 6.61244,-7.41409 6.83263,-6.97554 7.02196,-6.52689 8.0913,-6.82442 7.33334,-5.56641 8.38952,-5.60726 7.53615,-4.29105 7.55987,-3.54291 8.44907,-2.9821 7.35606,-1.66541 6.23812,-0.65872 7.66149,0.22994 6.37833,1.196 6.63407,2.35311 5.38299,2.89147 5.48589,4.01025 4.37824,4.14045 4.40549,5.18365 3.47584,5.00223 3.09492,5.30435 3.06472,6.26031 2.37189,5.78626 2.0673,5.95419 1.78206,6.09302 1.68981,6.98583 1.2402,6.30633 1.05896,6.34934 0.88336,6.38382 0.78755,7.21381 0.56225,7.24482 0.30508,6.46394 0.12662,6.47772 -0.065,7.29388 -0.25142,6.48957 -0.42765,6.48613 -0.60217,6.47795 -0.87774,7.26749 -0.96625,6.44209 -1.13352,6.417 -1.46552,7.17979 -1.47873,6.34605 -1.63584,6.30523 -1.78883,6.25915 -2.43204,7.74603 -1.85178,5.37689 -2.2394,6.08487 -2.67341,6.76546 -2.83672,6.6781 -2.65862,5.86012 -2.77675,5.78295 -3.25153,6.40689 -3.00928,5.60703 -2.33727,4.15182 -2.78642,4.77725 -3.6693,6.03444 -3.35845,5.26498 -3.43759,5.16768 -3.51073,5.06853 -4.02337,5.58101 -3.64656,4.85226 -3.701,4.74819 -3.74953,4.64316 -4.26107,5.09579 -3.8315,4.41687 -4.33744,4.8401 -3.88581,4.18894 -3.90187,4.08229 -3.91119,3.9753 -4.39721,4.34651 -3.9117,3.75257 -3.90262,3.64988 -4.365,3.98588 -3.86366,3.43781 -3.83615,3.34191 -4.26975,3.64982 -3.75959,3.1475 -3.71644,3.0623 -3.66774,2.98053 -3.6136,2.90271 -3.98859,3.18 -3.48575,2.75389 -3.83485,3.02634 -3.34017,2.62857 -3.66366,2.90065 -3.18184,2.5307 -3.10367,2.49403 -3.02402,2.46458 -3.29943,2.74873 -2.85166,2.42406 -2.77042,2.41604 -3.01384,2.72052 -2.59964,2.42223 -2.52155,2.43599 -2.14985,2.14441 -2.9541,3.11343 -2.29394,2.52302 -2.49669,2.89208 -4.21985,5.32532 -2.29997,3.08059 -2.00074,2.80164 -1.96143,2.86995 -2.16218,3.31991 -1.89818,3.02669 -1.87866,3.10523 -2.09405,3.59512 -1.85947,3.27836 -2.09018,3.7936 -1.8713,3.45623 -1.88775,3.53987 -2.1482,4.08772 -1.94511,3.71491 -1.98245,3.79439 -2.27964,4.36713 -2.08278,3.95504 -2.40859,4.53976 -1.93354,3.5779 -2.27056,4.15394 -2.344,4.21107 -2.72857,4.8048 -2.83517,4.86173 -2.61655,4.35557 -3.05337,4.94216 -2.81955,4.41023 -2.92077,4.42327 -3.41006,4.98703 -2.74939,3.86083 -3.65677,4.95959 -3.37258,4.37077 -3.93251,4.87174 -3.6224,4.26131 -3.2692,3.65963 -8.83007,9.13948 -4.12824,3.81352 -4.79145,4.08862 -4.38901,3.40359 -5.07901,3.52803 -4.63446,2.79793 -4.73673,2.41651 -4.82342,1.95252 -5.49882,1.51791 -4.90625,0.58603 -4.85572,-0.29894 -4.70427,-1.37825 -4.40905,-2.65676 -4.37856,-4.69445 -3.16704,-5.7236 -2.58846,-7.97026 -1.5315,-9.2241 -0.55013,-8.92992 0.10184,-9.37593 0.64606,-9.66133 0.37129,-3.70313 0.71264,-7.3114 0.78774,-10.62867 0.44941,-9.07479 0.23881,-8.66348 0.0469,-9.19934 -0.12524,-7.67455 -0.26314,-7.18242 -0.38558,-6.68696 -0.49709,-6.19621 -0.68748,-6.39086 -0.81788,-5.80396 -0.83545,-4.69244 -0.94448,-4.26857 -1.2044,-4.31621 -1.1995,-3.44027 -1.33277,-3.08634 -1.67406,-3.07274 -1.42802,-2.13325 -2.02643,-2.4149 -2.24076,-2.09342 -2.17576,-1.62368 -2.3582,-1.42116 -2.54508,-1.24239 -3.09512,-1.20822 -2.95038,-0.93985 -3.14188,-0.83235 -3.33209,-0.74626 -3.97797,-0.7575 -4.20996,-0.70235 -3.42007,-0.53241 -4.60247,-0.66774 -4.80951,-0.68145 -4.43416,-0.63821 -4.57921,-0.68012 -5.31864,-0.82843 -4.85401,-0.81232 -4.96625,-0.89267 -5.71322,-1.11012 -5.16594,-1.09716 -5.24048,-1.20753 -5.9751,-1.49771 -5.35559,-1.46808 -5.38854,-1.60141 -5.40721,-1.7408 -6.09424,-2.1295 -5.39872,-2.05421 -6.04636,-2.49362 -5.32132,-2.38614 -5.2601,-2.54694 -5.83109,-3.05863 -5.07589,-2.8945 -4.96329,-3.05907 -5.4352,-3.63635 -4.66859,-3.40581 -4.50407,-3.56539 -4.3237,-3.72128 -4.1279,-3.87234 -4.55069,-4.49318 -4.08853,-4.08068 -4.12999,-4.16464 -4.69511,-4.78835 -4.19763,-4.35037 -4.2199,-4.44064 -4.23525,-4.53239 -4.78194,-5.2105 -4.78303,-5.32976 -4.23807,-4.83787 -4.22311,-4.93309 -4.20038,-5.02858 -4.16923,-5.12405 -4.64911,-5.87952 -4.58512,-5.99953 -4.00434,-5.43167 -3.93144,-5.52432 -4.32806,-6.3256 -3.73606,-5.71654 -3.62235,-5.80359 -3.92583,-6.6315 -3.32479,-5.9786 -3.15379,-6.05435 -3.32077,-6.89649 -2.70765,-6.19419 -2.45019,-6.24599 -2.40855,-7.0751 -1.77125,-6.30881 -1.37463,-6.30597 -0.91703,-6.27279 -0.40279,-6.96912 0.30149,-6.0518 1.18185,-6.5605 1.90783,-5.50529 2.78789,-5.08805 3.71403,-4.55437 5.27798,-4.35336 5.61855,-3.08899 7.2173,-2.55501 7.07836,-1.45569 7.55963,-0.73561 7.9225,-0.0778 9.21849,0.60921 8.39201,1.09378 8.51283,1.54695 9.66263,2.2126 8.63889,2.34379 9.73212,3.00388 8.65325,2.96918 8.63544,3.21933 8.60654,3.44712 9.63179,4.12282 8.51766,3.87232 8.46532,4.05011 9.44903,4.75031 8.33657,4.39208 8.26827,4.5393 8.1957,4.67965 9.12225,5.41982 8.026,4.95863 8.92003,5.72189 7.83504,5.21808 5.82199,4.00044 7.65962,5.42119 6.61842,4.84116 7.45158,5.63124 8.23357,6.46058 8.07052,6.59725 7.03145,5.98235 6.88435,6.08826 6.72736,6.19332 6.55949,6.29732 7.16031,7.20241 6.1633,6.51551 5.95546,6.61622 6.42847,7.55586 5.46141,6.824 5.20112,6.91774 5.51161,7.88392 4.5797,7.10297 4.75467,8.07708 3.85095,7.25798 3.46578,7.31532 3.39919,8.27592 2.54774,7.38928 2.0653,7.39407 1.54895,7.37346 1.08045,8.22627 0.33827,7.22139 -0.36548,7.95262 -1.01703,6.87127 -1.69535,6.61712 -2.39056,6.29546 -3.52915,6.59593 -3.87449,5.35156 -4.54516,4.77241 -11.65543,7.74482 -6.26011,2.39161 -6.60818,1.46916 -7.67826,0.47811 -6.87246,-0.63935 -6.74069,-1.6484 -7.20559,-3.02985 -5.88621,-3.66105 -5.22852,-4.48689 -4.91545,-5.90559 -3.383,-5.86535 -2.34726,-6.31675 -1.29086,-7.49607 0.1409,-6.87743 1.48946,-6.99579 11.60159,-16.75502 5.95514,-4.91201 9.19604,-7.15148 8.26016,-6.17508 9.22089,-6.81747 7.9928,-5.98672 7.71369,-5.96145 7.37849,-5.96945 7.87145,-6.76487 5.7911,-5.30758 7.05775,-6.92954 5.91363,-6.26373 6.29181,-7.19342 5.29274,-6.52876 5.66207,-7.51956 4.7935,-6.83895 5.16413,-7.88564 4.40522,-7.17622 4.25819,-7.34099 4.13233,-7.50709 4.52907,-8.65063 3.44365,-6.86556 4.36984,-9.02641 3.84131,-8.19217 4.31154,-9.41165 4.33179,-9.60534 3.8947,-8.68453 4.47592,-9.93018 4.08969,-8.94002 4.23054,-9.02791 4.40358,-9.08587 5.20324,-10.24872 4.8718,-9.07108 5.13089,-8.9799 6.10439,-9.91985 5.72047,-8.57029 5.99451,-8.27467 7.05533,-8.8915 6.51566,-7.47374 6.71988,-7.04599 6.89567,-6.60707 7.93624,-6.92466 7.18499,-5.66426 8.20984,-5.72831 7.3645,-4.40937 7.37678,-3.67204 8.22987,-3.14083 7.15054,-1.81837 6.0514,-0.8013 7.41437,0.0358 6.15448,1.01463 6.38036,2.14098 5.15779,2.69708 5.23465,3.78634 4.15779,3.93759 4.1614,4.95177 3.2627,4.79321 2.88552,5.09279 2.83364,6.01934 2.17044,5.56948 1.86953,5.73493 1.58788,5.87127 1.47558,6.7333 1.05334,6.07896 0.87513,6.11882 0.70256,6.1501 0.58782,6.94706 0.36649,6.97406 0.13443,6.21991 -0.0408,6.23052 -0.24944,7.012 -0.41184,6.23567 -0.5847,6.22908 -0.75582,6.21772 -1.04647,6.97093 -1.11252,6.17508 -1.27624,6.14675 -1.62179,6.87187 -1.61374,6.06887 -1.76716,6.02471 -1.91639,5.97526 -2.58609,7.38642 -1.95601,5.12194 -2.35479,5.79023 -2.79841,6.42974 -2.95648,6.33783 -2.7606,5.55376 -2.87442,5.47287 -3.35612,6.05357 -3.09744,5.28892 -2.40035,3.91067 -2.85665,4.49315 -3.75411,5.66473 -3.42854,4.93209 -3.50254,4.83076 -3.57038,4.72756 -4.08397,5.19246 -3.69444,4.50255 -3.74307,4.39435 -3.78561,4.28517 -4.29424,4.68816 -3.85419,4.05016 -4.35506,4.42274 -3.89419,3.81368 -3.90319,3.70304 -3.90522,3.59224 -4.3815,3.91105 -3.88949,3.3616 -3.87242,3.25539 -4.32118,3.5381 -3.8157,3.03639 -3.77948,2.9375 -4.1953,3.19154 -3.68368,2.73756 -3.63114,2.65004 -3.57286,2.56629 -3.50896,2.48685 -3.85899,2.71067 -3.35979,2.33562 -3.68089,2.55516 -3.19229,2.20962 -3.48477,2.42971 -3.0116,2.11286 -2.92284,2.07746 -2.83258,2.04966 -3.07138,2.28454 -2.63775,2.01433 -2.54603,2.00948 -2.74905,2.26759 -2.35341,2.02408 -2.26531,2.04257 -1.91756,1.80438 -2.60957,2.63527 -2.00784,2.14737 -2.16413,2.47746 -3.60213,4.61084 -1.93849,2.69238 -1.67154,2.4654 -1.62523,2.54231 -1.77618,2.96204 -1.54863,2.71838 -1.52352,2.80638 -1.68844,3.2705 -1.49402,3.00028 -1.67416,3.49273 -1.49767,3.19952 -1.51097,3.29334 -1.72111,3.82259 -1.56313,3.49012 -1.5987,3.5798 -1.8463,4.13788 -1.69659,3.762 -1.97343,4.33451 -1.59488,3.42689 -1.88362,3.99051 -1.95744,4.05722 -2.29453,4.64303 -2.40227,4.71164 -2.233,4.23177 -2.62349,4.81346 -2.43907,4.305 -2.54194,4.32646 -2.98594,4.88794 -2.42113,3.79079 -3.23681,4.87832 -3.00125,4.30664 -3.51691,4.80845 -3.25486,4.21277 -2.94894,3.62296 -8.0115,9.0694 -3.76626,3.7933 -4.38511,4.07376 -4.02818,3.39732 -4.67305,3.52875 -4.27309,2.80552 -4.37443,2.43067 -4.4598,1.97336 -5.08782,1.54948 -4.53926,0.62145 -4.48804,-0.2566 -4.33804,-1.32921 -4.04842,-2.6017 -3.98806,-4.6272 -2.84284,-5.6617 -2.25927,-7.90169 -1.24487,-9.15967 -0.33045,-8.87754 0.29171,-9.32853 0.80992,-9.61884"
    fill="transparent"
    stroke="#000000"
    style="visibility:hidden"
    stroke-width="1.0"
    id="generated_shape"
  />
</svg>
